<svg width="98" height="83" viewBox="0 0 98 83" fill="none" xmlns="http://www.w3.org/2000/svg">
<path d="M95.6908 13.1249C94.7953 7.48493 89.6391 2.55648 83.9328 1.90282C60.6455 -0.634942 37.1514 -0.634271 13.8643 1.90482C8.17852 2.55625 3.02224 7.48426 2.12208 13.1454C-0.708477 31.638 -0.707352 50.4539 2.12541 68.9462C3.02202 74.5864 8.17852 79.5144 13.8834 80.1676C25.5152 81.4364 37.2074 82.0717 48.9081 82.071C60.6089 82.0717 72.301 81.4364 83.9328 80.1676L83.9515 80.1656C89.6382 79.5148 94.7947 74.5866 95.6942 68.9251C98.5247 50.4326 98.5236 31.617 95.6908 13.1249ZM65.5107 44.0681L43.6397 58.6488C43.0908 59.0148 42.4528 59.2249 41.7938 59.2567C41.1348 59.2886 40.4795 59.141 39.8978 58.8297C39.3161 58.5184 38.8298 58.055 38.4908 57.489C38.1517 56.923 37.9726 56.2757 37.9726 55.6159V26.4545C37.9726 25.7948 38.1517 25.1474 38.4908 24.5814C38.8298 24.0154 39.3161 23.5521 39.8978 23.2408C40.4795 22.9295 41.1348 22.7819 41.7938 22.8137C42.4528 22.8456 43.0908 23.0557 43.6397 23.4216L65.5107 38.0023C66.0101 38.3352 66.4195 38.7862 66.7026 39.3152C66.9858 39.8443 67.134 40.4351 67.134 41.0352C67.134 41.6353 66.9858 42.2261 66.7026 42.7552C66.4195 43.2843 66.0101 43.7353 65.5107 44.0681Z" fill="#F5F5F5"/>
</svg>
