<svg width="98" height="98" viewBox="0 0 98 98" fill="none" xmlns="http://www.w3.org/2000/svg">
<path d="M64.5587 48.9081C64.5587 52.0035 63.6408 55.0294 61.9211 57.6031C60.2014 60.1769 57.7571 62.1828 54.8973 63.3674C52.0376 64.552 48.8908 64.8619 45.8548 64.258C42.8189 63.6541 40.0303 62.1635 37.8415 59.9748C35.6527 57.786 34.1621 54.9973 33.5582 51.9614C32.9544 48.9255 33.2643 45.7787 34.4489 42.9189C35.6334 40.0591 37.6394 37.6148 40.2131 35.8951C42.7868 34.1754 45.8127 33.2575 48.9081 33.2575C53.0575 33.2623 57.0355 34.9127 59.9695 37.8467C62.9036 40.7807 64.554 44.7588 64.5587 48.9081ZM97.8162 27.3885V70.4277C97.808 77.6891 94.9198 84.6507 89.7852 89.7852C84.6507 94.9198 77.6891 97.808 70.4277 97.8162H27.3885C20.1272 97.808 13.1656 94.9198 8.031 89.7852C2.89644 84.6507 0.00822378 77.6891 0 70.4277V27.3885C0.00822378 20.1272 2.89644 13.1656 8.031 8.031C13.1656 2.89644 20.1272 0.00822378 27.3885 0H70.4277C77.6891 0.00822378 84.6507 2.89644 89.7852 8.031C94.9198 13.1656 97.808 20.1272 97.8162 27.3885ZM72.384 48.9081C72.384 44.265 71.0072 39.7262 68.4276 35.8656C65.8481 32.005 62.1816 28.9961 57.892 27.2192C53.6023 25.4424 48.8821 24.9775 44.3282 25.8833C39.7743 26.7891 35.5913 29.025 32.3082 32.3082C29.025 35.5913 26.7891 39.7743 25.8833 44.3282C24.9775 48.8821 25.4424 53.6023 27.2192 57.892C28.9961 62.1816 32.005 65.8481 35.8656 68.4276C39.7262 71.0072 44.265 72.384 48.9081 72.384C55.1322 72.377 61.0993 69.9014 65.5003 65.5003C69.9014 61.0993 72.377 55.1322 72.384 48.9081ZM80.2093 23.4759C80.2093 22.3151 79.8651 21.1804 79.2202 20.2153C78.5753 19.2501 77.6587 18.4979 76.5863 18.0537C75.5139 17.6095 74.3338 17.4932 73.1954 17.7197C72.0569 17.9462 71.0111 18.5051 70.1904 19.3259C69.3696 20.1467 68.8106 21.1924 68.5841 22.3309C68.3577 23.4694 68.4739 24.6494 68.9181 25.7219C69.3623 26.7943 70.1146 27.7109 71.0797 28.3558C72.0449 29.0007 73.1796 29.3449 74.3403 29.3449C75.8969 29.3449 77.3897 28.7265 78.4903 27.6259C79.591 26.5252 80.2093 25.0324 80.2093 23.4759Z" fill="#F5F5F5"/>
</svg>
