<svg width="98" height="98" viewBox="0 0 98 98" fill="none" xmlns="http://www.w3.org/2000/svg">
<path d="M48.9081 0C40.4133 0.0022927 32.0655 2.21653 24.6862 6.42478C17.307 10.633 11.1508 16.6902 6.8234 24.0002C2.49603 31.3102 0.146705 39.6211 0.00665092 48.1148C-0.133404 56.6084 1.94064 64.9922 6.02465 72.4409L2.00531 86.5091C1.63656 87.7993 1.61957 89.1646 1.9561 90.4636C2.29263 91.7626 2.97043 92.948 3.91926 93.8969C4.86808 94.8457 6.05341 95.5236 7.35239 95.8602C8.65137 96.1968 10.0167 96.1799 11.307 95.8112L25.3756 91.7918C31.9134 95.3792 39.185 97.4242 46.6343 97.7704C54.0837 98.1165 61.5135 96.7547 68.3559 93.7891C75.1982 90.8234 81.2718 86.3324 86.1123 80.6595C90.9528 74.9866 94.4321 68.2819 96.284 61.0581C98.136 53.8343 98.3116 46.2827 96.7975 38.9807C95.2833 31.6786 92.1196 24.8195 87.548 18.9276C82.9765 13.0358 77.1182 8.26734 70.4211 4.9868C63.7241 1.70626 56.3655 0.000521715 48.9081 0ZM60.2532 79.0054C60.2394 79.0164 60.2137 79.0054 60.1939 79.0054C54.7544 79.0054 49.3683 77.933 44.3436 75.8496C39.319 73.7662 34.7543 70.7127 30.9108 66.8637C27.0672 63.0147 24.0201 58.4457 21.9439 53.418C19.8676 48.3904 18.8029 43.0028 18.8106 37.5633C18.8277 33.0839 20.6188 28.7937 23.7917 25.6318C26.9646 22.4698 31.2609 20.6936 35.7403 20.6919C36.9747 20.6935 38.1867 21.0205 39.2544 21.64C40.322 22.2594 41.2074 23.1495 41.8212 24.2203L47.3191 33.8425C47.9815 35.0032 48.323 36.3193 48.3088 37.6556C48.2946 38.9919 47.9251 40.3004 47.2383 41.4467L43.8943 47.0202C45.5482 49.8876 47.9288 52.2683 50.7961 53.9222L56.3693 50.578C57.5157 49.8911 58.8242 49.5216 60.1605 49.5073C61.4969 49.493 62.813 49.8345 63.9738 50.4967L73.5953 55.9948C74.6663 56.6085 75.5565 57.4939 76.176 58.5615C76.7956 59.6291 77.1226 60.8413 77.1241 62.0757C77.1224 66.555 75.3462 70.8513 72.1844 74.0241C69.0225 77.197 64.7325 78.9881 60.2532 79.0054Z" fill="#F5F5F5"/>
<path d="M52.8818 61.445C52.3616 61.7574 51.7735 61.9392 51.1678 61.9749C50.562 62.0107 49.9566 61.8993 49.4033 61.6503C43.5192 59.0069 38.8092 54.297 36.1657 48.4129C35.9168 47.8595 35.8055 47.2541 35.8412 46.6483C35.8769 46.0426 36.0587 45.4544 36.3709 44.9341L40.7862 37.5751L35.441 28.2207C33.0075 28.297 30.6985 29.3145 29.0001 31.0589C27.3017 32.8033 26.3463 35.1386 26.335 37.5733C26.3287 42.0238 27.1998 46.432 28.8986 50.5455C30.5974 54.6591 33.0904 58.3974 36.2352 61.5467C39.38 64.6959 43.1147 67.1943 47.2259 68.8989C51.337 70.6035 55.7439 71.481 60.1945 71.481H60.2427C62.6773 71.4697 65.0126 70.5143 66.7571 68.8158C68.5015 67.1174 69.5189 64.8085 69.5953 62.375L60.2408 57.0298L52.8818 61.445Z" fill="#F5F5F5"/>
</svg>
