<svg width="394" height="395" viewBox="0 0 394 395" fill="none" xmlns="http://www.w3.org/2000/svg">
<path d="M170.914 1.81543C175.814 1.31543 181.514 0.615426 183.414 0.415426C185.314 0.315426 189.814 0.0154261 193.414 0.0154261C197.014 -0.0845739 205.814 0.315426 212.914 0.815426C220.014 1.41543 230.414 2.81543 235.914 3.91543C241.414 5.11543 251.314 7.81543 257.914 9.91543C264.514 12.1154 275.514 16.6154 282.414 19.9154C289.314 23.2154 299.214 28.8154 304.414 32.2154C309.614 35.6154 318.014 41.8154 322.914 46.0154C327.814 50.2154 335.214 57.0154 339.114 61.2154C343.114 65.4154 346.414 69.4154 346.414 70.0154C346.414 70.7154 345.814 72.2154 345.014 73.3154C343.714 75.2154 343.214 75.2154 337.714 74.0154C334.514 73.3154 326.314 71.6154 319.414 70.3154C312.514 69.0154 300.614 67.4154 292.914 66.7154C284.814 66.0154 273.014 65.8154 264.914 66.1154C257.214 66.4154 246.014 67.4154 239.914 68.3154C233.814 69.2154 224.214 71.1154 218.414 72.5154C212.614 73.9154 202.714 76.8154 196.414 79.0154C190.114 81.2154 180.014 85.3154 173.914 88.2154C167.814 91.1154 158.614 96.1154 153.414 99.3154C148.214 102.415 140.614 107.615 136.514 110.715C132.414 113.815 128.414 116.915 127.514 117.615C126.614 118.315 124.914 118.715 123.614 118.415C122.114 118.015 120.314 115.715 118.014 111.015C116.114 107.315 113.014 100.515 111.114 95.8154C109.214 91.1154 106.414 83.7154 105.014 79.3154C103.614 74.9154 101.314 66.6154 99.9145 60.8154C98.5145 55.0154 96.8144 46.0154 96.1144 40.8154C95.3144 35.6154 95.0145 30.4154 95.4145 29.3154C95.8145 28.1154 99.9145 25.3154 105.014 22.6154C109.914 20.0154 119.114 15.9154 125.414 13.5154C131.714 11.0154 142.514 7.61543 149.414 6.01543C156.314 4.31543 166.014 2.41543 170.914 1.81543Z" fill="black"/>
<path d="M74.9145 42.1154C77.7145 39.9154 81.4144 37.1154 83.2144 36.0154C85.2144 34.8154 87.2144 34.3154 88.5145 34.7154C89.7144 35.0154 90.9145 36.7154 91.4145 38.8154C92.0145 40.7154 92.4145 43.2154 92.4145 44.3154C92.4145 45.4154 93.6144 51.5154 95.0145 57.8154C96.4145 64.1154 99.2144 74.2154 101.114 80.3154C103.114 86.4154 107.114 96.7154 110.014 103.315C113.014 109.915 117.914 119.415 120.814 124.315C123.814 129.215 129.114 137.315 132.614 142.215C136.014 147.115 143.414 155.915 149.014 161.715C154.514 167.515 162.414 175.015 166.414 178.315C170.414 181.615 178.314 187.515 193.914 198.415L193.814 212.315C193.814 222.815 193.214 229.015 191.514 237.315C190.214 243.415 187.714 252.815 185.914 258.315C184.114 263.815 180.914 272.115 178.814 276.815C176.714 281.515 174.214 286.515 173.214 288.115C172.214 289.615 170.514 290.815 169.414 290.815C168.314 290.815 162.114 289.015 155.714 286.715C149.214 284.415 139.014 280.215 132.914 277.215C126.814 274.315 117.614 269.115 112.414 265.715C107.214 262.315 100.414 257.515 97.4145 255.015C94.4145 252.415 88.4145 247.015 84.1144 242.815C79.7144 238.715 73.4145 231.915 69.9145 227.815C66.5145 223.715 60.5145 215.615 56.6144 209.815C52.8144 204.015 47.1144 194.615 44.0145 188.815C40.9145 183.015 36.5145 174.015 34.3144 168.815C32.1144 163.615 28.5144 154.415 26.4144 148.315C24.4144 142.215 21.5144 132.215 17.4144 114.815L22.5144 105.115C25.3144 99.7154 29.7144 92.1154 32.3144 88.3154C34.8144 84.5154 40.8144 76.6154 45.5145 70.8154C50.2145 65.0154 57.6144 57.1154 62.0145 53.3154C66.3145 49.4154 72.2145 44.4154 74.9145 42.1154Z" fill="black"/>
<path d="M227.614 74.8154C235.814 73.1154 247.214 71.4154 253.114 70.9154C259.114 70.5154 267.014 70.0154 270.914 69.9154C274.814 69.9154 283.814 70.3154 290.914 70.8154C298.014 71.4154 309.314 72.8154 315.914 73.9154C322.514 75.0154 331.514 76.8154 335.914 77.9154C340.314 79.0154 346.814 80.8154 350.414 81.9154C354.014 83.0154 357.514 84.5154 358.314 85.1154C359.114 85.8154 361.814 89.5154 364.214 93.3154C366.714 97.1154 371.114 105.215 374.014 111.315C376.814 117.415 380.614 126.415 382.414 131.315C384.114 136.215 386.614 144.615 387.914 149.815C389.114 155.015 390.714 162.215 391.214 165.815C391.814 169.415 392.514 175.215 392.914 178.815C393.314 183.515 393.114 185.715 392.214 186.615C391.514 187.315 390.014 187.915 388.914 187.915C387.814 187.815 384.214 186.515 380.914 184.915C377.614 183.315 370.814 180.615 365.914 178.915C361.014 177.115 353.314 174.815 348.914 173.715C344.514 172.515 336.814 171.015 331.914 170.215C327.014 169.415 316.414 168.515 308.414 168.215C297.914 167.815 290.214 168.015 280.414 169.215C273.014 170.115 261.714 172.015 255.414 173.415C249.114 174.815 238.514 177.815 231.914 180.015C225.314 182.215 215.014 186.215 208.914 188.915C202.814 191.615 197.214 193.815 196.414 193.815C195.614 193.915 191.514 191.715 187.414 189.015C183.314 186.315 175.814 180.815 170.914 176.615C166.014 172.515 158.014 165.115 153.214 160.215C148.514 155.315 142.814 149.115 140.714 146.315C138.514 143.615 134.614 138.315 132.114 134.615C129.514 130.815 127.414 126.715 127.414 125.315C127.414 123.415 129.214 121.415 135.614 116.415C140.214 112.915 147.514 107.715 151.914 104.915C156.314 102.015 166.014 96.7154 173.414 93.0154C180.814 89.4154 192.714 84.5154 199.914 82.1154C207.014 79.7154 219.514 76.4154 227.614 74.8154Z" fill="black"/>
<path d="M6.91445 143.315C8.41445 138.415 10.0144 133.715 10.6144 133.115V133.015C11.2144 132.415 12.4144 131.815 13.3144 131.815C14.2144 131.815 15.4144 132.215 16.1144 132.615C16.7144 133.015 18.9144 138.515 21.0144 144.815C23.0144 151.115 26.5144 160.615 28.6144 165.815C30.8144 171.015 34.7145 179.615 37.3144 184.815C39.9144 190.015 44.5145 198.415 47.6144 203.315C50.7144 208.215 55.9144 216.015 59.3144 220.615C62.7145 225.115 68.7144 232.515 72.6144 237.015C76.6144 241.515 83.7145 248.415 88.4145 252.415C93.1144 256.415 99.6144 261.615 102.914 264.015C106.214 266.415 113.214 271.015 118.414 274.115C123.614 277.215 132.614 281.815 138.414 284.315C144.214 286.815 152.514 290.015 156.914 291.415C161.314 292.815 165.514 294.515 166.214 295.115C166.914 295.815 167.514 297.115 167.414 298.115C167.414 299.015 164.314 304.415 160.514 310.115C156.714 315.715 150.014 324.615 145.614 329.815C141.214 335.015 133.014 343.815 127.314 349.315C121.614 354.915 114.114 361.715 110.714 364.615C107.214 367.515 103.514 369.815 102.414 369.815C101.314 369.815 97.4144 367.915 93.7144 365.715C89.9144 363.415 82.6144 358.315 77.4145 354.415C72.2145 350.515 63.2144 342.615 57.4144 336.815C51.6144 331.015 44.1144 322.715 40.7144 318.315C37.4144 313.915 32.7144 307.215 30.2144 303.315C27.7144 299.415 23.4144 291.815 20.6144 286.315C17.9144 280.815 14.4144 273.215 12.9144 269.315C11.3144 265.415 8.61445 257.115 6.81445 250.815C5.11445 244.515 2.81445 234.415 1.81445 228.315C0.314448 219.815 -0.0855517 212.615 0.0144483 196.315C0.114448 179.715 0.614448 172.915 2.21445 163.815C3.41445 157.515 5.51445 148.215 6.91445 143.315Z" fill="black"/>
<path d="M300.214 188.315C299.114 176.815 299.114 174.915 300.414 173.415C301.714 171.915 303.114 171.715 312.414 172.315C318.214 172.715 327.214 173.715 332.414 174.515C337.614 175.315 345.514 176.915 349.914 178.115C354.314 179.215 362.614 182.015 368.414 184.315C374.214 186.515 382.014 190.015 392.914 195.615L393.214 203.015C393.414 207.115 393.014 214.715 392.414 219.915C391.814 225.115 390.214 234.615 388.814 240.915C387.314 247.215 384.714 256.715 382.914 261.915C381.214 267.115 377.514 276.115 374.714 281.915C372.014 287.715 367.414 296.215 364.514 300.915C361.514 305.615 356.614 312.815 353.514 316.915C350.414 321.015 344.314 328.215 339.914 332.815C335.514 337.415 327.914 344.615 322.914 348.715C318.014 352.915 310.114 358.815 305.414 361.915C300.714 364.915 291.514 370.215 284.914 373.615C278.314 376.915 267.514 381.515 260.914 383.815C254.314 386.015 246.214 388.415 242.914 389.115C239.614 389.915 236.114 390.315 235.214 390.215C234.214 390.015 233.214 388.815 232.914 387.415C232.514 385.315 234.014 383.215 242.014 374.715C247.314 369.015 255.214 359.715 259.514 353.915C263.814 348.115 269.514 339.615 272.114 334.915C274.814 330.315 279.014 321.915 281.514 316.415C284.014 310.915 287.514 302.315 289.214 297.415C290.914 292.515 293.214 284.815 294.314 280.415C295.414 276.015 297.014 268.615 297.814 263.915C298.714 259.215 299.814 251.115 300.414 245.915C301.014 240.715 301.514 228.515 301.514 218.915C301.514 209.315 300.914 195.515 300.214 188.315Z" fill="black"/>
<path d="M266.914 175.515C271.914 174.615 277.014 173.815 278.414 173.615C279.814 173.315 283.414 173.115 286.414 173.015C289.814 172.915 292.314 173.315 293.114 174.115C293.714 174.815 294.914 178.815 295.614 182.915C296.514 187.915 296.914 199.615 296.914 217.415C296.914 238.615 296.514 246.915 295.114 255.915C294.014 262.215 291.714 273.315 289.914 280.415C288.114 287.515 284.314 299.315 281.514 306.415C278.614 313.515 273.814 323.915 270.714 329.415C267.614 334.915 261.914 343.915 258.114 349.415C253.914 355.415 245.814 364.715 238.014 372.515C230.814 379.715 222.214 387.515 213.114 394.415L196.014 394.315C185.114 394.315 174.914 393.715 167.914 392.615C161.914 391.715 151.714 389.515 145.414 387.915C139.114 386.215 129.214 382.915 123.514 380.615C117.814 378.315 112.514 375.715 111.714 374.915C110.914 374.115 110.514 372.515 110.814 371.415C111.114 370.315 115.014 366.315 119.514 362.415C124.014 358.515 131.514 351.315 136.214 346.415C141.014 341.415 147.614 334.015 151.014 329.915C154.314 325.815 159.614 318.815 162.614 314.415C165.714 310.015 170.714 301.915 173.714 296.415C176.814 290.915 181.314 281.715 183.814 275.915C186.214 270.115 189.814 260.015 191.714 253.415C193.614 246.815 195.914 236.715 196.814 230.915C197.714 225.115 198.714 215.915 198.914 210.415C199.214 204.915 199.414 200.015 199.414 199.415C199.414 198.815 202.814 196.715 207.114 194.515C211.414 192.415 219.414 188.915 224.914 186.915C230.414 184.815 240.114 181.715 246.414 180.015C252.714 178.415 262.014 176.315 266.914 175.515Z" fill="black"/>
<path d="M59.5145 69.4152C63.0145 65.6152 69.2146 59.6152 73.2146 56.2152C77.2146 52.7152 81.1146 50.1152 81.9146 50.4152C82.7146 50.6152 83.6146 51.8152 83.9146 53.0152C84.1146 54.3152 85.5145 60.3152 87.0145 66.3152C88.4146 72.3152 91.4145 82.5152 93.6145 88.8152C95.8145 95.1152 100.615 106.415 104.215 113.815C107.915 121.215 113.515 131.415 116.815 136.315C120.015 141.215 124.915 148.215 127.615 151.815C130.315 155.415 136.015 162.115 140.215 166.715C144.415 171.415 152.715 179.315 158.515 184.215C164.315 189.215 172.815 195.815 185.515 204.315L184.915 212.815C184.615 217.515 183.615 225.615 182.815 230.815C181.915 236.015 179.815 244.815 178.215 250.315C176.615 255.815 173.415 264.615 171.215 269.815C169.015 275.015 167.015 279.515 166.815 279.815C166.615 280.115 162.215 278.815 157.115 277.015C152.115 275.215 142.115 270.815 134.915 267.215C127.715 263.615 117.615 257.715 112.415 254.015C107.215 250.315 97.2146 241.715 90.3146 234.815C83.4146 227.915 74.6146 218.015 70.7146 212.815C66.8145 207.615 61.7146 200.115 59.4146 196.315C57.0146 192.515 52.5146 184.115 49.3146 177.815C46.2146 171.515 42.2146 162.915 40.6146 158.815C39.0146 154.715 36.9146 149.015 35.9146 146.315C35.0146 143.515 32.7146 135.815 27.4146 116.815L30.6146 110.515C32.3146 107.115 35.5146 101.415 37.7146 97.8152C39.9146 94.2152 44.3146 87.9152 47.4146 83.8152C50.6146 79.7152 56.0145 73.2152 59.5145 69.4152Z" fill="#FDFDFD"/>
<path d="M265.915 185.415C270.815 184.615 276.015 183.715 277.415 183.515C278.815 183.215 281.115 183.015 282.715 182.915C284.515 182.848 285.581 183.382 285.915 184.515C286.115 185.515 286.815 193.315 287.415 201.815C288.215 212.915 288.215 221.715 287.415 232.815C286.815 241.315 285.715 252.115 285.015 256.815C284.215 261.515 282.215 270.715 280.615 277.315C278.915 283.915 276.215 292.915 274.615 297.315C273.015 301.715 269.715 309.415 267.415 314.315C265.015 319.215 261.115 326.715 258.615 330.815C256.115 334.915 251.315 342.015 248.015 346.415C244.615 350.915 239.215 357.415 235.815 360.915C232.515 364.415 227.115 369.815 223.815 372.815C220.615 375.915 216.115 379.815 209.915 384.815H197.915C191.315 384.815 180.715 384.115 174.415 383.315C168.115 382.615 159.815 381.315 155.915 380.415C152.115 379.615 144.615 377.615 139.415 375.915C134.215 374.215 129.115 372.315 128.115 371.615C126.415 370.415 127.415 369.115 140.115 356.315C148.015 348.415 158.115 336.815 163.515 329.715C168.615 322.715 175.715 312.415 179.015 306.715C182.415 301.015 186.815 292.915 188.715 288.815C190.615 284.715 193.215 278.815 194.415 275.815C195.615 272.815 197.715 266.915 199.015 262.815C200.415 258.715 202.415 251.515 203.615 246.815C204.715 242.115 206.215 234.215 207.015 229.315C207.715 224.415 208.415 216.715 208.415 204.315L213.715 201.915C216.515 200.615 222.315 198.215 226.415 196.615C230.515 195.015 239.115 192.115 245.415 190.315C251.715 188.515 261.015 186.315 265.915 185.415Z" fill="#FDFDFD"/>
<path d="M237.915 82.2151C244.015 81.3151 254.115 80.3151 260.415 79.9151C266.715 79.5151 273.715 79.3151 275.915 79.4151C278.115 79.6151 284.615 80.0151 290.415 80.3151C296.215 80.5151 306.315 81.7151 312.915 82.7151C319.515 83.8151 327.615 85.4151 330.915 86.3151C334.215 87.2151 340.315 88.8151 344.415 89.9151C348.515 90.9151 352.515 92.6151 353.215 93.6151C354.015 94.5151 355.715 97.3151 357.115 99.8151C358.515 102.315 361.115 106.815 362.915 109.815C364.715 112.815 367.815 119.615 369.915 124.815C371.915 130.015 374.215 136.115 375.015 138.315C375.715 140.515 377.515 146.815 378.915 152.315C380.315 157.815 381.715 165.115 382.215 168.615C382.615 172.015 382.615 174.815 382.115 174.815C381.715 174.815 379.915 174.215 378.115 173.415C376.415 172.615 371.515 170.815 367.415 169.415C363.315 168.015 355.415 165.715 349.915 164.415C344.415 163.015 334.715 161.115 328.415 160.215C319.815 159.015 312.315 158.715 298.415 159.115C288.215 159.415 275.215 160.315 269.415 161.315C263.615 162.215 254.415 164.115 248.915 165.415C243.415 166.815 235.815 168.915 231.915 170.015C228.015 171.215 220.215 174.115 214.415 176.515C208.615 178.915 202.215 181.615 200.115 182.415C196.415 183.815 196.415 183.815 189.715 179.115C185.915 176.515 179.515 171.715 175.415 168.315C171.315 164.915 163.815 157.815 158.915 152.615C154.015 147.415 147.215 139.415 137.915 126.515L140.915 124.115C142.615 122.815 144.315 121.415 144.915 121.015C145.515 120.515 150.415 117.315 155.915 113.715C161.415 110.115 170.815 104.715 176.915 101.615C183.015 98.5151 193.315 94.2151 199.915 92.0151C206.515 89.8151 215.315 87.1151 219.415 85.9151C223.515 84.8151 231.815 83.1151 237.915 82.2151Z" fill="#07224A"/>
<path d="M311.015 205.815C310.615 199.515 310.115 191.515 309.815 188.115L309.115 181.815H314.015C316.715 181.815 322.315 182.315 326.415 182.815C330.515 183.315 336.115 184.315 338.915 184.915C341.615 185.515 349.515 187.815 356.415 190.015C363.315 192.215 372.315 195.615 383.915 201.315L383.715 209.815C383.515 214.515 382.915 221.415 382.415 225.315C381.815 229.215 380.415 236.115 379.315 240.815C378.215 245.515 376.615 251.115 375.915 253.315C375.215 255.515 373.015 261.415 371.115 266.315C369.115 271.215 365.615 279.115 363.215 283.815C360.815 288.515 356.315 296.115 353.215 300.815C350.115 305.515 344.515 312.915 340.715 317.315C337.015 321.715 331.715 327.515 328.915 330.215C326.215 332.915 320.815 337.915 316.915 341.315C313.015 344.615 307.015 349.415 303.415 351.815C299.815 354.315 294.615 357.615 291.915 359.315C289.215 360.915 283.115 364.215 278.415 366.415C273.715 368.715 267.415 371.515 264.415 372.615C261.415 373.715 257.815 375.015 253.915 376.115L255.915 373.715C257.015 372.415 258.415 370.915 259.015 370.315C259.615 369.815 262.515 365.915 265.615 361.815C268.615 357.715 273.815 350.015 277.015 344.815C280.215 339.615 285.315 330.415 288.215 324.315C291.115 318.215 295.515 307.415 297.915 300.315C300.315 293.215 303.415 282.115 304.815 275.815C306.215 269.515 307.815 261.415 308.315 257.815C308.915 254.215 309.815 243.715 310.515 234.315C311.115 224.915 311.315 212.115 311.015 205.815Z" fill="#07224A"/>
<path d="M207.615 211.515C207.415 208.215 207.515 205.015 207.815 204.215L207.815 204.215C208.215 203.515 208.615 202.815 208.715 202.815C208.915 202.815 208.815 206.115 208.015 217.415L207.615 211.515Z" fill="#07224A"/>
<path d="M203.515 385.615C199.915 385.815 194.315 385.815 191.015 385.615C187.715 385.415 190.615 385.215 197.515 385.215C204.415 385.215 207.115 385.415 203.515 385.615Z" fill="#07224A"/>
<path d="M160.914 16.9151C167.014 15.8151 173.514 14.7151 175.414 14.4151C177.314 14.2151 188.614 14.1151 200.414 14.3151C217.214 14.6151 224.114 15.1151 231.914 16.7151C237.414 17.9151 245.714 19.9151 250.414 21.2151C255.114 22.6151 263.614 25.7151 269.414 28.1151C275.214 30.6151 283.314 34.5151 287.414 36.8151C291.514 39.1151 297.614 42.8151 300.914 45.0151C304.214 47.3151 310.014 51.6151 313.814 54.7151C317.614 57.8151 321.914 61.3151 323.314 62.5151C324.714 63.6151 325.714 64.8151 325.414 65.1151C325.114 65.4151 322.614 65.2151 319.914 64.7151C317.114 64.2151 309.314 63.1151 302.414 62.3151C295.514 61.5151 282.814 60.8151 274.114 60.8151C265.514 60.8151 254.014 61.3151 248.714 61.8151C243.314 62.4151 234.214 63.8151 228.414 64.8151C222.614 65.9151 212.314 68.4151 205.414 70.4151C198.514 72.3151 188.214 75.9151 182.414 78.2151C176.614 80.6151 169.214 83.9151 165.914 85.5151C162.614 87.2151 156.114 90.8151 151.414 93.6151C146.714 96.3151 139.414 101.115 135.114 104.215C130.914 107.315 127.114 109.815 126.714 109.815C126.214 109.915 124.214 106.115 122.014 101.615C119.914 97.0151 116.414 88.1151 114.314 81.8151C112.314 75.5151 109.414 65.1151 108.014 58.8151C106.714 52.5151 105.414 45.0151 104.914 37.3151L115.414 32.1151C121.214 29.2151 131.314 25.1151 137.914 22.9151C144.514 20.8151 154.814 18.0151 160.914 16.9151Z" fill="#FFC600"/>
<path d="M10.4145 174.815C11.0145 171.215 11.9145 166.115 12.5145 163.315C13.1145 160.615 13.9145 158.715 14.3145 159.315C14.8145 159.915 16.4145 163.915 18.0145 168.315C19.5145 172.715 24.3145 183.315 28.5145 191.815C32.8145 200.315 39.1145 211.615 42.5145 216.815C45.9145 222.015 51.5145 229.915 54.9145 234.315C58.3145 238.715 64.5145 245.915 68.5145 250.215C72.6145 254.515 80.2145 261.715 85.4145 266.115C90.6145 270.515 99.2145 276.915 104.414 280.415C109.614 283.815 118.814 289.115 124.914 292.115C131.014 295.115 139.014 298.715 142.914 300.215C146.714 301.715 150.914 303.315 152.114 303.815C153.414 304.415 154.414 305.115 154.414 305.615C154.414 306.015 152.814 308.815 150.714 312.015C148.614 315.115 143.214 322.015 138.714 327.515C134.214 332.915 126.614 341.215 121.714 345.915C116.914 350.615 110.414 356.515 101.914 363.615L95.9145 360.015C92.6145 357.915 87.4145 354.415 84.4145 352.215C81.4145 349.915 75.6145 345.215 71.7145 341.715C67.7145 338.215 61.6145 332.115 58.2145 328.315C54.7145 324.415 49.8145 318.615 47.3145 315.315C44.8145 312.015 40.5145 305.915 37.9145 301.815C35.2145 297.715 30.5145 288.915 27.3145 282.315C24.1145 275.715 20.0145 265.615 18.1145 259.815C16.2145 254.015 13.7145 244.615 12.5145 238.815C11.4145 233.015 9.91446 223.115 9.31446 216.815C8.71446 210.215 8.41446 200.215 8.81446 193.315C9.21446 186.715 9.91446 178.415 10.4145 174.815Z" fill="#FFC600"/>
</svg>
