<svg width="202" height="200" viewBox="0 0 202 200" fill="none" xmlns="http://www.w3.org/2000/svg">
<g clip-path="url(#clip0_509_321)">
<path fill-rule="evenodd" clip-rule="evenodd" d="M0 99.9999C0 44.7718 44.7712 0 99.9998 0C123.291 0 144.722 7.96251 161.72 21.3137C148.775 14.1064 133.867 10.0002 118 10.0002C68.2942 10.0002 28 50.2946 28 99.9999C28 149.706 68.2942 190 118 190C133.867 190 148.775 185.894 161.72 178.686C144.722 192.037 123.291 200 99.9998 200C44.7712 200 0 155.228 0 99.9999ZM201.72 99.9999C201.72 144.183 165.902 180 121.719 180C103.087 180 85.942 173.63 72.3438 162.949C82.6994 168.715 94.6259 172 107.32 172C147.084 172 179.32 139.764 179.32 100C179.32 60.2356 147.084 28.0001 107.32 28.0001C94.6259 28.0001 82.6994 31.2851 72.3438 37.051C85.942 26.3699 103.087 20 121.719 20C165.902 20 201.72 55.8173 201.72 99.9999ZM62.7135 90.6281L55.5199 117.912C55.4625 118.161 55.4243 118.39 55.4052 118.6C55.4052 119.04 55.539 119.431 55.8065 119.775C56.1886 120.291 56.7522 120.549 57.4974 120.549H63.1434C63.8885 120.549 64.5955 120.296 65.2642 119.79C65.9329 119.283 66.3628 118.638 66.5539 117.855L68.4741 110.633H88.8513V117.855C88.8513 118.638 89.1044 119.283 89.6107 119.79C90.117 120.296 90.7619 120.549 91.5453 120.549H96.9333C97.6785 120.549 98.3186 120.296 98.8535 119.79C99.3885 119.283 99.656 118.657 99.656 117.912V82.1162C99.656 81.4092 99.422 80.7883 98.9539 80.2533C98.4857 79.7183 97.8982 79.4508 97.1913 79.4508H81.7436C71.0057 79.4699 64.6623 83.1957 62.7135 90.6281ZM107.853 82.2308V117.912C107.853 118.657 108.12 119.283 108.655 119.79C109.19 120.296 109.83 120.549 110.575 120.549H143.62C144.365 120.549 145.001 120.286 145.526 119.761C146.052 119.235 146.314 118.6 146.314 117.855V115.161C146.314 114.416 146.052 113.776 145.526 113.241C145.001 112.706 144.365 112.438 143.62 112.438H118.658V82.2308C118.658 81.4474 118.395 80.7882 117.87 80.2533C117.344 79.7183 116.709 79.4508 115.963 79.4508H110.575C109.83 79.4508 109.19 79.7183 108.655 80.2533C108.12 80.7883 107.853 81.4474 107.853 82.2308ZM88.8513 102.522H70.595L73.117 93.3221C73.5946 91.5643 74.5165 90.1648 75.8827 89.1235C77.2488 88.0822 78.849 87.5615 80.6832 87.5615H88.8513V102.522Z" fill="#FFC600"/>
</g>
<defs>
<clipPath id="clip0_509_321">
<rect width="201.72" height="200" fill="white"/>
</clipPath>
</defs>
</svg>
