<svg width="258" height="258" viewBox="0 0 258 258" fill="none" xmlns="http://www.w3.org/2000/svg">
<path fill-rule="evenodd" clip-rule="evenodd" d="M128.294 46.79C82.8905 46.79 46.084 83.5971 46.084 129C46.084 147.242 52.0255 164.097 62.079 177.734C69.9322 176.899 77.7979 176.211 85.6762 175.671C75.3145 162.939 69.1029 146.695 69.1029 129C69.1029 88.1374 102.229 55.0113 143.092 55.0113C156.136 55.0113 168.392 58.387 179.034 64.3122C165.06 53.336 147.442 46.79 128.294 46.79ZM190.878 177.218C184.211 176.563 177.535 176.014 170.85 175.573C184.644 164.735 193.503 147.903 193.503 129C193.503 96.31 167.002 69.8091 134.312 69.8091C123.876 69.8091 114.071 72.5097 105.558 77.2497C116.737 68.4688 130.832 63.2321 146.15 63.2321C182.473 63.2321 211.918 92.6777 211.918 129C211.918 148.05 203.82 165.208 190.878 177.218ZM134.75 143.726V114.392C134.75 113.748 134.97 113.206 135.41 112.767C135.85 112.327 136.376 112.107 136.988 112.107H141.418C142.031 112.107 142.553 112.327 142.985 112.767C143.417 113.206 143.633 113.748 143.633 114.392V139.226H164.155C164.767 139.226 165.29 139.446 165.721 139.886C166.154 140.325 166.369 140.852 166.369 141.464V143.679C166.369 144.292 166.154 144.814 165.721 145.246C165.29 145.678 164.767 145.894 164.155 145.894H136.988C136.376 145.894 135.85 145.686 135.41 145.269C134.97 144.853 134.75 144.339 134.75 143.726ZM91.7271 143.726L97.6409 121.296C99.2431 115.186 104.458 112.123 113.286 112.107H125.985C126.566 112.107 127.05 112.327 127.434 112.767C127.819 113.206 128.012 113.717 128.012 114.298V143.726C128.012 144.339 127.792 144.853 127.352 145.269C126.912 145.686 126.386 145.894 125.773 145.894H121.344C120.7 145.894 120.17 145.686 119.753 145.269C119.337 144.853 119.129 144.323 119.129 143.679V137.742H102.377L100.798 143.679C100.641 144.323 100.288 144.853 99.7379 145.269C99.1881 145.686 98.607 145.894 97.9944 145.894H93.3528C92.7402 145.894 92.2768 145.682 91.9627 145.258C91.7428 144.975 91.6329 144.653 91.6329 144.292C91.6485 144.119 91.6799 143.93 91.7271 143.726ZM104.12 131.074H119.129V118.775H112.414C110.906 118.775 109.591 119.203 108.467 120.059C107.344 120.915 106.586 122.065 106.194 123.51L104.12 131.074Z" fill="#FFC600"/>
<path fill-rule="evenodd" clip-rule="evenodd" d="M53.8057 225.326C103.727 218.877 154.273 218.877 204.195 225.326C217.649 214.809 228.844 201.534 236.929 186.352C201.22 180.146 165.11 177.043 129 177.043C92.8901 177.043 56.78 180.146 21.0718 186.352C29.1564 201.534 40.3511 214.809 53.8057 225.326ZM128.665 194.401C128.665 194.457 128.65 194.514 128.65 194.57L128.642 195.512C128.641 195.625 128.668 195.779 128.793 195.907C128.835 195.921 128.821 195.935 128.863 195.95C128.96 196.049 129.087 196.05 129.185 196.051L139.378 196.14C139.49 196.141 139.645 196.114 139.772 196.002C139.9 195.877 139.929 195.722 139.931 195.595L139.94 194.542C139.94 194.536 139.938 194.527 139.934 194.51C139.929 194.486 139.921 194.447 139.913 194.387C139.872 194.203 139.803 194.147 139.649 194.048C139.579 194.004 139.495 193.989 139.396 193.989L129.274 193.9C129.162 193.885 128.993 193.912 128.866 194.024L128.795 194.079C128.696 194.177 128.68 194.303 128.665 194.401ZM118.524 203.848C116.767 203.868 115.799 202.924 115.778 201.166L115.699 194.587C115.698 194.462 115.752 194.32 115.849 194.192C115.974 194.079 116.128 194.035 116.255 194.032L117.492 194.018C117.618 194.016 117.773 194.043 117.887 194.168C118.015 194.293 118.045 194.447 118.047 194.559L118.124 201.012C118.128 201.335 118.2 201.49 118.271 201.559C118.371 201.628 118.498 201.696 118.835 201.692L127.115 201.592C127.439 201.589 127.666 201.811 127.67 202.134L127.683 203.189C127.684 203.302 127.644 203.456 127.533 203.584C127.408 203.713 127.254 203.743 127.141 203.744L118.524 203.848ZM141.778 194.576C141.788 194.253 142.019 194.036 142.343 194.045L143.888 194.093C144.155 194.102 144.278 194.231 144.373 194.333C144.387 194.333 144.387 194.333 144.401 194.348L151.307 201.241L151.501 194.875C151.512 194.552 151.744 194.334 152.067 194.344L153.303 194.382C153.627 194.392 153.858 194.624 153.849 194.948L153.58 203.688C153.576 203.814 153.544 203.968 153.414 204.076C153.297 204.199 153.127 204.222 153 204.219L151.47 204.171C151.203 204.164 151.08 204.019 150.984 203.945L150.957 203.917L144.037 197.023L143.842 203.389C143.838 203.501 143.806 203.655 143.675 203.778C143.559 203.901 143.404 203.924 143.277 203.92L142.04 203.881C141.717 203.872 141.499 203.64 141.509 203.317L141.778 194.576ZM102.375 194.478C102.052 194.49 101.835 194.723 101.846 195.045L102.148 203.784C102.159 204.107 102.391 204.325 102.715 204.314L103.951 204.271C104.077 204.266 104.231 204.233 104.339 204.103C104.461 203.972 104.484 203.816 104.48 203.704L104.261 197.339L111.614 203.768L111.643 203.795C111.659 203.806 111.676 203.818 111.694 203.832C111.79 203.902 111.918 203.996 112.142 203.988L113.674 203.935C113.8 203.931 113.968 203.898 114.076 203.767C114.199 203.65 114.221 203.495 114.217 203.369L113.916 194.629C113.905 194.306 113.658 194.09 113.335 194.101L112.098 194.143C111.775 194.155 111.558 194.387 111.569 194.71L111.789 201.074L104.449 194.646C104.441 194.638 104.437 194.635 104.433 194.634C104.43 194.633 104.427 194.633 104.421 194.633C104.319 194.538 104.188 194.416 103.921 194.425L102.375 194.478ZM158.741 194.541C156.818 194.438 155.622 195.219 155.514 197.227C155.408 199.192 156.513 200.138 158.402 200.352L164.295 201.004C164.728 201.042 164.919 201.164 165.026 201.283C165.131 201.415 165.176 201.629 165.16 201.923C165.128 202.541 164.853 202.668 164.249 202.635C163.013 202.583 161.876 202.523 160.753 202.462C158.886 202.363 156.765 202.263 155.825 202.212L155.306 202.185C155.262 202.197 155.247 202.21 155.245 202.252C155.227 203.391 156.104 204.354 157.242 204.415L164.247 204.789C166.199 204.893 167.366 204.111 167.474 202.089C167.579 200.139 166.447 199.177 164.586 198.979L158.694 198.326C158.261 198.26 158.068 198.166 157.962 198.034C157.843 197.9 157.798 197.7 157.813 197.405C157.83 197.083 157.909 196.932 158.012 196.839C158.116 196.746 158.331 196.673 158.724 196.694L167.68 197.173C167.723 197.175 167.738 197.162 167.74 197.12L167.741 197.106C167.803 195.941 166.94 194.979 165.775 194.917L158.741 194.541ZM90.9422 205.015C89.1877 205.116 88.1256 204.276 88.0215 202.465L87.7628 197.96C87.6587 196.149 88.5615 195.196 90.3721 195.092L97.2776 194.695C99.032 194.595 100.08 195.435 100.184 197.246L100.443 201.751C100.544 203.506 99.602 204.517 97.8476 204.619L90.9422 205.015ZM84.0733 195.544C83.7508 195.566 83.5427 195.807 83.5661 196.13L84.1976 204.851C84.2209 205.174 84.4616 205.382 84.7841 205.358L86.018 205.269C86.1442 205.259 86.2964 205.221 86.3994 205.086C86.5165 204.951 86.5334 204.794 86.5252 204.683L85.8937 195.961C85.8856 195.849 85.8463 195.696 85.711 195.579C85.5897 195.461 85.4334 195.445 85.3072 195.454L84.0733 195.544ZM176.293 195.7C174.486 195.55 173.458 196.368 173.309 198.175L172.935 202.673C172.785 204.481 173.72 205.461 175.471 205.606L182.434 206.183C183.891 206.304 184.91 205.754 185.255 204.315C185.259 204.273 185.232 204.257 185.19 204.254L175.999 203.491C175.649 203.462 175.474 203.363 175.383 203.257C175.291 203.178 175.25 202.992 175.273 202.726L175.624 198.494C175.646 198.228 175.717 198.051 175.82 197.989C175.927 197.898 176.115 197.844 176.465 197.874L185.656 198.635C185.727 198.642 185.743 198.615 185.718 198.57C185.614 197.095 184.713 196.399 183.256 196.278L176.293 195.7ZM70.3685 197.254C70.3408 196.932 70.5457 196.689 70.8678 196.661L81.9191 195.71C82.0453 195.699 82.2029 195.727 82.3386 195.829C82.4476 195.947 82.5156 196.082 82.5264 196.208L82.6169 197.258C82.6458 197.594 82.4257 197.825 82.1036 197.853L77.7335 198.229L78.3458 205.345C78.3554 205.456 78.3407 205.613 78.2255 205.75C78.1243 205.886 77.9726 205.927 77.8466 205.938L76.642 206.042C76.516 206.052 76.3595 206.037 76.2366 205.922C76.0996 205.806 76.0583 205.654 76.0487 205.542L75.4363 198.426L71.0522 198.804C70.9402 198.814 70.7836 198.798 70.648 198.698C70.511 198.582 70.4697 198.431 70.4589 198.305L70.3685 197.254ZM90.2244 197.425C90.1302 197.5 90.0846 197.685 90.0999 197.953L90.3433 202.191C90.3587 202.458 90.4253 202.637 90.5275 202.701C90.6315 202.794 90.8187 202.868 91.1696 202.847L97.3734 202.491C97.7242 202.471 97.9027 202.391 97.9953 202.287C98.0599 202.184 98.1236 202.068 98.105 201.745L97.8615 197.507C97.8292 196.945 97.5974 196.832 97.0501 196.863L90.8463 197.219C90.4955 197.24 90.317 197.321 90.2244 197.425ZM189.427 206.846C187.68 206.66 186.768 205.659 186.961 203.855L187.438 199.368C187.629 197.564 188.676 196.771 190.479 196.963L197.357 197.695C199.104 197.881 200.002 198.881 199.81 200.685L199.333 205.172C199.146 206.92 198.053 207.765 196.306 207.579L189.427 206.846ZM59.6152 197.811C57.8122 198.006 56.9586 199.003 57.1535 200.806L57.6387 205.293C57.8338 207.096 58.9369 207.882 60.684 207.693L67.6307 206.942C69.0843 206.785 69.9807 206.051 70.0471 204.574C70.0425 204.532 70.0131 204.521 69.9712 204.525L60.8022 205.517C60.4527 205.555 60.262 205.49 60.1535 205.403C60.0481 205.344 59.9725 205.168 59.9439 204.903L59.4874 200.682C59.4586 200.416 59.4948 200.228 59.5852 200.147C59.6724 200.039 59.8465 199.949 60.196 199.911L69.365 198.92C69.4348 198.912 69.4458 198.883 69.4133 198.844C69.0324 197.415 68.0155 196.902 66.5619 197.06L59.6152 197.811ZM128.608 199.434C128.621 199.561 128.676 199.659 128.76 199.731C128.774 199.773 128.802 199.773 128.816 199.787C128.927 199.887 129.054 199.888 129.152 199.889L129.321 199.89L139.204 199.976C139.541 199.979 139.754 199.77 139.757 199.432L139.766 198.393C139.767 198.308 139.767 198.252 139.753 198.238C139.74 198.139 139.657 197.984 139.559 197.941C139.461 197.841 139.335 197.84 139.236 197.839L129.269 197.752C129.143 197.737 128.974 197.75 128.846 197.862L128.776 197.917C128.69 198.015 128.647 198.127 128.646 198.225L128.617 198.394L128.608 199.434ZM200.676 207.454C200.634 207.775 200.827 208.027 201.148 208.069L202.374 208.23C202.5 208.247 202.657 208.24 202.785 208.128C202.927 208.019 202.975 207.87 202.99 207.758L203.743 202.029L206.604 208.418C206.712 208.673 206.891 208.824 207.141 208.857L208.243 209.002C208.508 209.037 208.72 208.937 208.89 208.719L213.305 203.286L212.551 209.015C212.537 209.128 212.545 209.285 212.654 209.426C212.749 209.566 212.898 209.614 213.024 209.631L214.251 209.792C214.376 209.808 214.533 209.801 214.66 209.69C214.803 209.581 214.851 209.432 214.865 209.32L216.005 200.65C216.02 200.539 216.013 200.382 215.903 200.239C215.808 200.1 215.659 200.051 215.533 200.035L213.665 199.789C213.554 199.775 213.453 199.79 213.348 199.833C213.185 199.882 213.101 199.985 213.047 200.077L208.059 206.198L204.822 198.995C204.794 198.893 204.739 198.771 204.594 198.682C204.504 198.613 204.41 198.572 204.313 198.559L202.431 198.312C202.11 198.269 201.858 198.463 201.816 198.784L200.676 207.454ZM43.142 209.361C43.1658 209.543 43.2539 209.673 43.4219 209.764C43.5389 209.792 43.6402 209.806 43.7238 209.795L45.1594 209.606C45.2152 209.599 45.3091 209.558 45.4429 209.498C45.5834 209.38 45.6524 209.258 45.6953 209.153L46.3075 207.88L47.3682 205.6L49.1446 201.863C49.1809 201.816 49.2088 201.812 49.2561 201.849L53.5693 206.924L54.1369 207.572L54.4902 207.994C54.5411 208.058 54.6431 208.187 54.8233 208.261C54.8985 208.295 54.9998 208.309 55.1112 208.295L56.5469 208.105C56.6305 208.095 56.7244 208.054 56.8304 207.997C56.969 207.865 57.0203 207.717 56.9964 207.535C56.9697 207.44 56.9289 207.346 56.8622 207.269L50.1535 199.405C49.9987 199.199 49.7834 199.071 49.5185 199.106L48.1805 199.282C48.069 199.297 47.9751 199.337 47.8988 199.404C47.7584 199.522 47.6894 199.644 47.6568 199.72L43.201 209.056C43.1943 209.08 43.1868 209.103 43.1794 209.126C43.1546 209.202 43.1307 209.276 43.142 209.361ZM189.954 199.24C189.849 199.299 189.773 199.476 189.745 199.741L189.296 203.963C189.267 204.229 189.304 204.416 189.395 204.496C189.482 204.605 189.656 204.708 190.005 204.745L196.184 205.402C196.533 205.44 196.722 205.389 196.831 205.302C196.911 205.211 196.993 205.107 197.026 204.786L197.476 200.564C197.536 200.005 197.325 199.854 196.78 199.797L190.601 199.139C190.252 199.102 190.062 199.152 189.954 199.24ZM128.575 203.202C128.574 203.315 128.615 203.469 128.726 203.583C128.74 203.625 128.768 203.625 128.782 203.639C128.88 203.71 128.992 203.74 129.119 203.741L139.367 203.829C139.48 203.831 139.62 203.818 139.733 203.72L139.776 203.679C139.89 203.554 139.919 203.399 139.92 203.286L139.929 202.232C139.93 202.147 139.93 202.091 139.917 202.077C139.877 201.81 139.625 201.681 139.386 201.679L129.123 201.589C128.941 201.588 128.842 201.643 128.714 201.769C128.643 201.867 128.6 201.979 128.599 202.105C128.584 202.119 128.584 202.176 128.583 202.274L128.575 203.202ZM169.043 203.417C169.066 203.095 169.29 202.898 169.613 202.921L170.721 202.995C171.044 203.018 171.24 203.243 171.218 203.566L171.142 204.673C171.134 204.786 171.097 204.938 170.962 205.042C170.841 205.16 170.685 205.177 170.573 205.17L169.465 205.095C169.353 205.086 169.2 205.049 169.096 204.914C168.979 204.793 168.961 204.638 168.969 204.525L169.043 203.417Z" fill="#FFC600"/>
<path fill-rule="evenodd" clip-rule="evenodd" d="M10.1402 78.7852C16.6684 63.3511 25.8827 49.6837 37.7832 37.7832C49.6837 25.8827 63.3511 16.6684 78.7852 10.1402C94.7681 3.38007 111.506 0 129 0C146.493 0 163.231 3.38004 179.215 10.1401C194.649 16.6683 208.317 25.8826 220.216 37.7832C232.117 49.6835 241.332 63.3508 247.86 78.7853C254.62 94.7683 258 111.507 258 129C258 146.494 254.62 163.232 247.86 179.215C241.332 194.648 232.118 208.316 220.216 220.217C208.317 232.117 194.649 241.331 179.215 247.86C163.231 254.62 146.493 258 129 258C111.506 258 94.7682 254.62 78.7852 247.86C63.3513 241.332 49.684 232.117 37.7832 220.217C25.8828 208.316 16.6684 194.649 10.1402 179.215C3.38006 163.232 0 146.493 0 129C0 111.506 3.38006 94.7681 10.1402 78.7852ZM12.7677 79.8966C6.15784 95.5242 2.85292 111.892 2.85292 129C2.85292 146.108 6.15784 162.476 12.7677 178.103C19.1513 193.195 28.1622 206.561 39.8006 218.2C51.4386 229.838 64.804 238.849 79.8966 245.231C95.5244 251.842 111.892 255.146 129 255.146C146.108 255.146 162.475 251.842 178.103 245.231C193.196 238.849 206.561 229.838 218.2 218.2C229.838 206.562 238.848 193.196 245.232 178.103C251.842 162.476 255.147 146.108 255.147 129C255.147 111.892 251.842 95.5238 245.232 79.8966C238.849 64.8046 229.838 51.4392 218.2 39.8005C206.562 28.1623 193.196 19.1514 178.103 12.7678C162.476 6.15788 146.108 2.85291 129 2.85291C111.892 2.85291 95.5242 6.15784 79.8966 12.7677C64.8041 19.1514 51.4388 28.1624 39.8005 39.8005C28.1624 51.4388 19.1514 64.8041 12.7677 79.8966Z" fill="#FFC600"/>
<path fill-rule="evenodd" clip-rule="evenodd" d="M129 6.80371C61.5132 6.80371 6.8042 61.5127 6.8042 129C6.8042 148.711 11.4713 167.332 19.7607 183.819C20.0204 183.684 20.2946 183.592 20.5833 183.542C32.6795 181.44 44.8061 179.692 56.9631 178.299C47.3448 164.271 41.7173 147.292 41.7173 129C41.7173 80.7947 80.7952 41.7168 129 41.7168C177.205 41.7168 216.283 80.7947 216.283 129C216.283 147.293 210.656 164.271 201.037 178.299C213.194 179.692 225.321 181.44 237.418 183.542C237.603 183.573 237.782 183.623 237.956 183.691C238.054 183.728 238.148 183.771 238.24 183.819C246.529 167.332 251.197 148.711 251.197 129C251.197 61.5127 196.487 6.80371 129 6.80371ZM143.682 22.0079L146.798 21.3844L146.378 19.9149L143.417 21.0999L143.682 22.0079ZM138.082 22.1569L133.861 29.9109C133.794 30.0305 133.7 30.125 133.576 30.1943C133.453 30.2636 133.319 30.2953 133.174 30.2892C133.032 30.2832 132.903 30.2405 132.786 30.161C132.669 30.0815 132.581 29.9793 132.521 29.8544L128.973 21.7727L130.639 21.843L133.275 27.8789L136.422 22.0868L138.082 22.1569ZM141.633 30.7938L143.107 31.0112L144.307 22.8819L142.833 22.6645L141.633 30.7938ZM112.216 28.9615C112.276 29.2494 112.294 29.516 112.269 29.7612C112.244 30.0064 112.19 30.2294 112.107 30.4302C112.025 30.631 111.916 30.8099 111.781 30.967C111.646 31.124 111.501 31.2599 111.345 31.3743C111.189 31.4889 111.027 31.5834 110.857 31.658C110.687 31.7326 110.524 31.7864 110.367 31.8192L104.741 32.9971L104.436 31.5389L110.061 30.361C110.342 30.3022 110.542 30.1744 110.663 29.9774C110.784 29.7804 110.815 29.5435 110.757 29.2668C110.729 29.1323 110.683 29.0132 110.618 28.9095C110.554 28.806 110.474 28.7211 110.38 28.6549C110.287 28.5887 110.18 28.5447 110.06 28.5229C109.94 28.5012 109.813 28.5043 109.679 28.5326L106.325 29.2348C106.089 29.2841 105.826 29.2953 105.535 29.2683C105.245 29.2413 104.963 29.1587 104.69 29.0207C104.417 28.8827 104.172 28.6786 103.953 28.4081C103.735 28.1378 103.579 27.7839 103.488 27.3463C103.396 26.9089 103.397 26.5234 103.489 26.1899C103.581 25.8564 103.724 25.5708 103.918 25.333C104.112 25.0953 104.337 24.9058 104.592 24.7645C104.848 24.6232 105.093 24.5279 105.329 24.4786L110.292 23.4393L110.598 24.8975L105.634 25.9369C105.357 25.9948 105.159 26.1241 105.039 26.3249C104.919 26.5256 104.888 26.7644 104.946 27.0411C105.005 27.3214 105.129 27.5268 105.318 27.6569C105.507 27.7871 105.74 27.8233 106.017 27.7653L109.371 27.063L109.382 27.0606C109.54 27.0315 109.711 27.0183 109.895 27.0206C110.079 27.0231 110.266 27.0473 110.457 27.0932C110.649 27.139 110.836 27.2081 111.019 27.3005C111.202 27.3928 111.373 27.5142 111.531 27.6646C111.69 27.8148 111.828 27.9966 111.947 28.2098C112.066 28.423 112.155 28.6736 112.216 28.9615ZM156.725 30.3629C156.609 30.8498 156.418 31.2775 156.152 31.6461C155.885 32.0147 155.569 32.3113 155.201 32.536C154.833 32.7607 154.425 32.9081 153.976 32.978C153.527 33.048 153.063 33.026 152.584 32.9119L148.671 31.9807C148.567 31.9559 148.474 31.9144 148.394 31.856C148.314 31.7976 148.249 31.7281 148.199 31.6476C148.15 31.5671 148.117 31.4779 148.101 31.3798C148.085 31.2818 148.089 31.1807 148.114 31.0767L149.669 24.5431C149.693 24.4428 149.734 24.3524 149.792 24.2721C149.851 24.1917 149.92 24.1259 150.001 24.0744C150.082 24.023 150.172 23.9894 150.269 23.9734C150.368 23.9575 150.469 23.9619 150.573 23.9865L154.486 24.9178C154.966 25.0318 155.39 25.2211 155.759 25.4857C156.128 25.7502 156.426 26.0655 156.654 26.4318C156.88 26.7979 157.029 27.2065 157.1 27.6574C157.172 28.1083 157.15 28.5753 157.035 29.0585L156.725 30.3629ZM155.586 28.7135C155.653 28.4311 155.669 28.162 155.633 27.9063C155.598 27.6504 155.517 27.4199 155.389 27.2147C155.261 27.0095 155.092 26.8339 154.881 26.6875C154.671 26.5411 154.424 26.4344 154.142 26.3672L150.947 25.6072L149.735 30.7024L152.929 31.4625C153.211 31.5297 153.48 31.5454 153.734 31.5096C153.987 31.4738 154.217 31.3932 154.424 31.2676C154.631 31.142 154.807 30.9739 154.954 30.7633C155.1 30.5526 155.207 30.3042 155.275 30.0181L155.586 28.7135ZM99.8495 32.345C99.874 31.8916 99.8042 31.4285 99.64 30.9558L99.1248 29.4726C98.9619 29.0034 98.73 28.5977 98.4291 28.2553C98.1283 27.913 97.7836 27.6485 97.3953 27.4619C97.007 27.2753 96.5869 27.1694 96.1354 27.1442C95.6838 27.1191 95.2253 27.1873 94.7598 27.3491L92.8544 28.0107C92.3888 28.1725 91.9857 28.4034 91.6452 28.7037C91.3046 29.004 91.0398 29.3477 90.8508 29.7349C90.6617 30.1221 90.5543 30.5435 90.5287 30.9993C90.5029 31.4552 90.5716 31.9176 90.7345 32.3867L91.2496 33.8699C91.4138 34.3427 91.647 34.749 91.9491 35.0889C92.2511 35.4289 92.5966 35.6931 92.9856 35.8815C93.3746 36.0699 93.7954 36.1755 94.2482 36.1982C94.7009 36.2209 95.1601 36.1514 95.6256 35.9898L97.5309 35.328C97.9965 35.1663 98.3989 34.9365 98.7384 34.6387C99.0777 34.3409 99.3416 33.9975 99.5301 33.6085C99.7185 33.2195 99.8249 32.7983 99.8495 32.345ZM162.074 35.7222L167.109 37.6023L167.631 36.2065L162.606 34.3305C162.42 34.261 162.297 34.1599 162.236 34.0272C162.176 33.8945 162.179 33.7368 162.247 33.5543L163.869 29.2113L169.462 31.2998L169.984 29.9041L163.698 27.557C163.597 27.5195 163.498 27.5028 163.398 27.5064C163.299 27.5101 163.205 27.5325 163.119 27.5736C163.032 27.6146 162.956 27.6714 162.887 27.744C162.819 27.8165 162.767 27.9011 162.732 27.9976L160.852 33.0332C160.716 33.3947 160.668 33.7242 160.706 34.0217C160.743 34.3192 160.831 34.5822 160.967 34.8107C161.105 35.0392 161.275 35.2302 161.479 35.3837C161.682 35.5372 161.88 35.6501 162.074 35.7222ZM97.3226 29.2523C97.4893 29.4472 97.6209 29.6835 97.7174 29.9614L98.2325 31.4446C98.3291 31.7225 98.3723 31.9896 98.3622 32.2458C98.3522 32.5021 98.2938 32.7387 98.1872 32.9557C98.0806 33.1727 97.9299 33.3646 97.735 33.5313C97.5401 33.6981 97.3056 33.829 97.0313 33.9243L95.1368 34.5823C94.8624 34.6776 94.5972 34.7202 94.341 34.7101C94.0847 34.7 93.8475 34.6429 93.6293 34.5387C93.4111 34.4345 93.2187 34.285 93.052 34.0902C92.8852 33.8953 92.7535 33.659 92.657 33.3811L92.1419 31.8979C92.0454 31.62 92.0022 31.3529 92.0122 31.0967C92.0223 30.8404 92.0807 30.6038 92.1874 30.3868C92.2939 30.1699 92.4447 29.978 92.6395 29.8113C92.8343 29.6445 93.0689 29.5135 93.3432 29.4182L95.2486 28.7564C95.5193 28.6624 95.7827 28.6205 96.0389 28.6306C96.2952 28.6406 96.5315 28.6981 96.7479 28.8029C96.9642 28.9077 97.1558 29.0575 97.3226 29.2523ZM118.016 30.1334C118.045 30.0395 118.054 29.9414 118.042 29.839C118.03 29.7403 117.999 29.6488 117.949 29.5643C117.898 29.4798 117.836 29.4083 117.762 29.3497C117.688 29.2911 117.604 29.2472 117.51 29.2178C117.416 29.1885 117.32 29.1797 117.221 29.1912C117.119 29.2032 117.025 29.2345 116.941 29.2848C116.856 29.3351 116.785 29.3974 116.726 29.4716C116.667 29.5458 116.624 29.6298 116.597 29.7234C116.57 29.817 116.562 29.9132 116.573 30.0118C116.585 30.1143 116.616 30.2078 116.664 30.2925C116.712 30.3772 116.774 30.4488 116.848 30.5074C116.922 30.566 117.006 30.609 117.1 30.6364C117.193 30.6639 117.291 30.6716 117.394 30.6596C117.492 30.6479 117.584 30.6179 117.669 30.5695C117.754 30.521 117.825 30.4597 117.884 30.3854C117.942 30.3112 117.986 30.2272 118.016 30.1334ZM163.249 32.5764L167.656 34.2219L168.181 32.8154L163.773 31.1699L163.249 32.5764ZM88.6639 38.5634L83.8418 40.938C83.7184 40.9988 83.5785 41.0496 83.4219 41.0905C83.2653 41.1314 83.1025 41.1552 82.9333 41.1619C82.7641 41.1685 82.5921 41.1542 82.4171 41.119C82.2422 41.0838 82.0718 41.0208 81.9058 40.9301C81.7397 40.8394 81.5824 40.7167 81.4338 40.562C81.2853 40.4074 81.1545 40.2152 81.0414 39.9856L79.2592 36.3665C79.1985 36.2431 79.1476 36.1031 79.1067 35.9466C79.0658 35.79 79.042 35.6271 79.0353 35.4579C79.0287 35.2887 79.0439 35.1163 79.0808 34.9405C79.1178 34.7648 79.1816 34.5939 79.2722 34.4279C79.363 34.2618 79.4848 34.105 79.6377 33.9573C79.7907 33.8096 79.9819 33.6792 80.2116 33.5661L85.0337 31.1915L85.6919 32.5281L80.8698 34.9027C80.695 34.9888 80.5841 35.1008 80.5372 35.2389C80.4901 35.377 80.5114 35.5369 80.6009 35.7186L82.378 39.3274C82.4624 39.4988 82.5749 39.6084 82.7155 39.6562C82.8563 39.704 83.0122 39.6858 83.1836 39.6014L88.0057 37.2268L88.6639 38.5634ZM180.223 40.3986C179.992 40.8422 179.702 41.2105 179.355 41.5034C179.008 41.7964 178.629 42.0076 178.216 42.1371C177.804 42.2666 177.373 42.3099 176.924 42.267C176.474 42.2241 176.031 42.0887 175.594 41.8606L173.806 40.9271C173.369 40.6991 173.004 40.4124 172.709 40.0673C172.416 39.7221 172.204 39.3433 172.074 38.931C171.945 38.5186 171.901 38.086 171.941 37.633C171.982 37.1801 172.118 36.7318 172.349 36.2881L173.076 34.8963C173.305 34.456 173.595 34.089 173.945 33.7952C174.294 33.5015 174.675 33.2907 175.086 33.1629C175.498 33.0351 175.93 32.9923 176.382 33.0343C176.834 33.0764 177.278 33.2115 177.715 33.4396L179.503 34.373C179.94 34.6011 180.304 34.8881 180.595 35.2341C180.886 35.5801 181.097 35.9584 181.228 36.3691C181.358 36.7797 181.402 37.2119 181.359 37.6657C181.316 38.1195 181.179 38.5665 180.95 39.0067L180.223 40.3986ZM179.629 38.3172C179.765 38.0564 179.847 37.7986 179.875 37.5436C179.902 37.2886 179.88 37.0465 179.808 36.8171C179.736 36.5877 179.615 36.3763 179.447 36.1828C179.279 35.9894 179.067 35.8263 178.814 35.6937L177.025 34.7603C176.768 34.6259 176.512 34.545 176.256 34.5174C176.002 34.4899 175.759 34.5117 175.527 34.5829C175.297 34.654 175.085 34.7738 174.891 34.9421C174.698 35.1105 174.533 35.325 174.397 35.5858L173.67 36.9776C173.534 37.2384 173.453 37.4962 173.424 37.7512C173.397 38.0062 173.42 38.2488 173.494 38.479C173.567 38.7093 173.688 38.9212 173.857 39.1146C174.025 39.3081 174.238 39.472 174.495 39.6064L176.274 40.5345C176.531 40.6689 176.786 40.7498 177.042 40.7774C177.297 40.8049 177.54 40.7831 177.771 40.7119C178.002 40.6408 178.214 40.5211 178.408 40.3527C178.602 40.1844 178.766 39.9698 178.902 39.7091L179.629 38.3172ZM76.5619 45.0108L77.8312 44.2306L73.5285 37.2299L72.2592 38.01L76.5619 45.0108ZM189.754 48.7716C189.95 48.6214 190.132 48.4257 190.299 48.1843C190.468 47.943 190.588 47.706 190.663 47.4733C190.736 47.2406 190.773 47.0151 190.774 46.7968C190.775 46.5785 190.746 46.371 190.688 46.1743C190.629 45.9776 190.551 45.794 190.453 45.6234C190.355 45.4529 190.244 45.2999 190.12 45.1643C189.995 45.0288 189.869 44.9135 189.739 44.8187L189.73 44.8121L186.919 42.8529C186.687 42.6913 186.553 42.497 186.518 42.27C186.483 42.043 186.547 41.812 186.711 41.5769C186.872 41.345 187.068 41.2038 187.296 41.1534C187.525 41.103 187.755 41.1586 187.986 41.3203L192.147 44.2197L192.999 42.9974L188.838 40.0979C188.641 39.9603 188.403 39.8471 188.125 39.7581C187.847 39.6692 187.555 39.6356 187.249 39.6574C186.943 39.6791 186.636 39.7709 186.33 39.9325C186.025 40.0942 185.744 40.3584 185.489 40.7251C185.234 41.0918 185.082 41.4474 185.036 41.7919C184.989 42.1364 185.009 42.4553 185.095 42.7485C185.182 43.0418 185.315 43.3034 185.494 43.5333C185.674 43.7633 185.863 43.9471 186.06 44.0847L188.871 46.0439C188.984 46.1225 189.074 46.2128 189.14 46.3149C189.207 46.4169 189.248 46.5248 189.264 46.6385C189.28 46.7523 189.273 46.8682 189.241 46.9862C189.21 47.1043 189.156 47.2197 189.077 47.3325C188.916 47.5645 188.721 47.7041 188.495 47.7513C188.269 47.7986 188.038 47.7403 187.804 47.5765L183.088 44.2904L182.236 45.5128L186.951 48.7989C187.083 48.8906 187.235 48.9727 187.406 49.0451C187.575 49.1175 187.756 49.171 187.946 49.2057C188.136 49.2403 188.335 49.2529 188.541 49.2434C188.748 49.2338 188.954 49.1904 189.156 49.113C189.359 49.0356 189.558 48.9218 189.754 48.7716ZM72.1274 47.1695C72.192 47.2548 72.236 47.346 72.2594 47.4433C72.2828 47.5406 72.288 47.6361 72.2751 47.7298C72.2623 47.8234 72.2308 47.9132 72.1808 47.999C72.1308 48.0848 72.0648 48.1589 71.9825 48.2212C71.9094 48.2766 71.8253 48.3188 71.7298 48.348C71.6345 48.3771 71.5348 48.3831 71.4309 48.3661L63.6587 47.1241L67.1547 51.7366L65.9673 52.6365L61.388 46.5946C61.2956 46.4728 61.2463 46.3365 61.2398 46.1857C61.2333 46.0348 61.2649 45.8946 61.3344 45.7651C61.4125 45.6341 61.5195 45.535 61.6556 45.4678C61.7916 45.4007 61.9357 45.3789 62.088 45.4026L69.8565 46.6401L66.3606 42.0276L67.548 41.1276L72.1274 47.1695ZM53.4868 52.5482L54.8649 49.6853L53.4386 49.136L52.6018 52.2136L53.4868 52.5482ZM62.0889 55.3984C62.0518 55.3063 61.9956 55.2222 61.9205 55.146L56.6793 49.8281L55.6181 50.874L60.3405 55.6654L58.4754 57.5036C58.4427 57.5358 58.3694 57.5987 58.2553 57.6924C58.141 57.7862 57.9965 57.8817 57.8216 57.979C57.6467 58.0764 57.4441 58.1607 57.214 58.2319C56.9838 58.3032 56.7364 58.3324 56.4718 58.3197C56.2071 58.307 55.9314 58.2381 55.6446 58.1132C55.3579 57.9881 55.067 57.776 54.772 57.4767L51.8879 54.5504L50.8268 55.5963L53.7109 58.5226C54.0488 58.8654 54.3959 59.136 54.7524 59.3344C55.109 59.5329 55.4652 59.6699 55.8213 59.7454C56.1773 59.8209 56.5283 59.8437 56.8742 59.8138C57.2203 59.7839 57.5517 59.7133 57.8685 59.6021C58.1854 59.491 58.4836 59.346 58.7631 59.167C59.0427 58.9881 59.2954 58.7873 59.5212 58.5647L61.9129 56.2075C61.9863 56.1351 62.0422 56.0532 62.0807 55.9616C62.1192 55.8701 62.1395 55.7763 62.1415 55.6804C62.1436 55.5846 62.1261 55.4905 62.0889 55.3984ZM198.685 58.6548L197.618 57.6147L203.354 51.7308L204.421 52.7709L198.685 58.6548ZM207.178 68.3166L208.138 69.4712L213.968 64.6256C214.1 64.5157 214.185 64.3783 214.221 64.2136C214.258 64.0488 214.243 63.8901 214.176 63.7373C214.101 63.5812 213.99 63.4632 213.845 63.3833C213.699 63.3033 213.542 63.2759 213.374 63.3012L206.671 64.461L209.038 58.0833C209.066 58.0045 209.081 57.9253 209.082 57.8452C209.082 57.7653 209.07 57.6875 209.044 57.6119C209.018 57.5363 208.983 57.4657 208.936 57.4004C208.888 57.3351 208.832 57.2776 208.766 57.2281C208.626 57.131 208.472 57.0864 208.304 57.0939C208.137 57.1016 207.987 57.1603 207.855 57.2701L202.025 62.1158L202.977 63.2615L206.74 60.1338L204.862 65.1446C204.813 65.2702 204.801 65.3959 204.826 65.5217C204.85 65.6474 204.904 65.7602 204.988 65.8601C205.073 65.9629 205.176 66.0396 205.298 66.0901C205.419 66.1406 205.546 66.1531 205.679 66.1273L210.942 65.1886L207.178 68.3166ZM47.4915 68.6119C47.7348 68.7772 47.9326 68.9567 48.0851 69.1504C48.2375 69.3441 48.3536 69.542 48.4334 69.744C48.5131 69.9461 48.559 70.1504 48.5709 70.3571C48.5828 70.5639 48.5726 70.7624 48.5401 70.9529C48.5077 71.1433 48.4563 71.3243 48.3859 71.4958C48.3155 71.6674 48.2351 71.8196 48.145 71.9522L44.9141 76.7057L43.6819 75.8681L46.9128 71.1148C47.0738 70.8778 47.1294 70.6465 47.0795 70.4208C47.0296 70.1953 46.8878 70.003 46.654 69.8441C46.5402 69.7668 46.4242 69.7133 46.3057 69.6836C46.1873 69.654 46.0714 69.6478 45.9578 69.6654C45.8443 69.6829 45.7369 69.7254 45.6356 69.7929C45.5344 69.8603 45.4451 69.9508 45.3678 70.0646L43.4415 72.8986C43.3062 73.0978 43.1246 73.2883 42.8968 73.4707C42.6689 73.653 42.4089 73.7893 42.1167 73.8793C41.8245 73.9694 41.5059 73.9931 41.1608 73.9502C40.8158 73.9074 40.4585 73.7604 40.0888 73.5091C39.7191 73.2579 39.4517 72.9802 39.2865 72.6762C39.1213 72.3723 39.026 72.0673 39.0007 71.7614C38.9753 71.4555 39.0055 71.163 39.0912 70.884C39.1769 70.6051 39.2873 70.3661 39.4226 70.1671L42.2734 65.9728L43.5056 66.8104L40.6548 71.0045C40.4959 71.2383 40.443 71.4691 40.496 71.6969C40.5491 71.9247 40.6925 72.118 40.9263 72.277C41.1633 72.438 41.3951 72.4997 41.6216 72.4619C41.8482 72.4243 42.0409 72.2885 42.1998 72.0547L44.1261 69.2207L44.1326 69.2111C44.2259 69.0806 44.3397 68.9524 44.4738 68.8264C44.6079 68.7005 44.7596 68.5876 44.929 68.488C45.0983 68.3884 45.281 68.3081 45.4771 68.2473C45.6731 68.1865 45.8803 68.1553 46.0986 68.1536C46.3169 68.1518 46.5428 68.1864 46.7763 68.2574C47.0098 68.3284 47.2482 68.4465 47.4915 68.6119ZM219.206 77.6485C218.917 77.8282 218.637 77.953 218.365 78.023C218.094 78.093 217.834 78.1212 217.584 78.1076C217.336 78.094 217.1 78.046 216.877 77.9639C216.655 77.8817 216.451 77.7781 216.266 77.6531C216.08 77.528 215.914 77.3882 215.768 77.2337C215.622 77.0791 215.501 76.924 215.404 76.7683L213.623 73.9079L214.888 73.1206L216.669 75.9809C216.783 76.135 216.908 76.261 217.042 76.3591C217.178 76.4571 217.32 76.5249 217.47 76.5625C217.619 76.5999 217.774 76.6048 217.935 76.5769C218.095 76.5491 218.256 76.4846 218.418 76.3837L218.992 76.0264C219.141 75.9112 219.265 75.7862 219.366 75.6516C219.467 75.517 219.537 75.3757 219.575 75.228C219.614 75.0803 219.621 74.9265 219.595 74.7667C219.57 74.607 219.506 74.4444 219.403 74.279L217.628 71.4282C217.523 71.2596 217.399 71.1588 217.258 71.1257C217.116 71.0927 216.961 71.1276 216.797 71.2306L211.596 74.4681L210.809 73.2032L216.009 69.9658C216.333 69.7639 216.645 69.6514 216.946 69.6285C217.247 69.6055 217.522 69.639 217.772 69.729C218.021 69.8189 218.242 69.9479 218.435 70.1161C218.627 70.2843 218.778 70.456 218.887 70.6311L220.667 73.4915C220.846 73.777 220.968 74.0558 221.037 74.3283C221.105 74.6007 221.132 74.8616 221.118 75.1108C221.105 75.3599 221.057 75.5949 220.973 75.8155C220.89 76.036 220.787 76.24 220.663 76.4275C220.539 76.6149 220.399 76.7815 220.245 76.9272C220.091 77.0729 219.935 77.1942 219.779 77.2911L219.206 77.6485ZM40.9411 79.6332C40.6441 79.2899 40.2723 79.0051 39.8259 78.7788L38.4255 78.0689C37.9825 77.8444 37.5339 77.7133 37.0797 77.6758C36.6254 77.6383 36.1937 77.6871 35.7847 77.8224C35.3756 77.9578 34.9998 78.173 34.6574 78.4684C34.3149 78.7639 34.0323 79.1313 33.8094 79.5708L32.8975 81.37C32.6747 81.8095 32.5449 82.2556 32.5083 82.7081C32.4716 83.1607 32.5196 83.5919 32.6523 84.0019C32.7851 84.4117 33.0004 84.7897 33.2983 85.1356C33.5963 85.4814 33.9667 85.7667 34.4097 85.9912L35.8101 86.7011C36.2565 86.9273 36.7064 87.058 37.1598 87.093C37.6132 87.1279 38.0453 87.0781 38.4561 86.9438C38.8668 86.8094 39.2431 86.5932 39.5847 86.2952C39.9263 85.9972 40.2085 85.6284 40.4313 85.1889L41.3433 83.3898C41.5661 82.9502 41.6963 82.5054 41.7338 82.0555C41.7713 81.6055 41.7228 81.1751 41.5884 80.7644C41.454 80.3535 41.2382 79.9765 40.9411 79.6332ZM36.9754 79.1616C37.2306 79.1861 37.4895 79.2648 37.7518 79.3979L39.1523 80.1077C39.4147 80.2407 39.6312 80.4029 39.8018 80.5944C39.9725 80.7858 40.0948 80.9966 40.1687 81.2268C40.2426 81.457 40.2673 81.6998 40.2428 81.955C40.2184 82.2103 40.1405 82.4675 40.0092 82.7264L39.1024 84.5154C38.9711 84.7743 38.8098 84.989 38.6184 85.1597C38.4269 85.3304 38.2165 85.454 37.9872 85.5304C37.7578 85.6069 37.5155 85.6329 37.2602 85.6084C37.0049 85.584 36.7461 85.5052 36.4837 85.3722L35.0833 84.6623C34.8209 84.5293 34.6044 84.3672 34.4337 84.1757C34.2631 83.9842 34.1408 83.7734 34.0669 83.5432C33.993 83.313 33.9683 83.0703 33.9928 82.815C34.0172 82.5597 34.0951 82.3026 34.2264 82.0436L35.1383 80.2445C35.2679 79.9889 35.4284 79.7758 35.6198 79.6052C35.8112 79.4345 36.0212 79.3119 36.2497 79.2371C36.4782 79.1623 36.7201 79.1372 36.9754 79.1616ZM218.021 85.7693L220.287 90.6435L221.638 90.0154L219.377 85.1517C219.293 84.9715 219.276 84.8129 219.327 84.676C219.377 84.5389 219.49 84.4294 219.667 84.3473L223.87 82.393L226.387 87.8077L227.738 87.1796L224.91 81.0948C224.864 80.9977 224.806 80.9157 224.732 80.8487C224.659 80.7816 224.577 80.7323 224.487 80.7007C224.396 80.669 224.301 80.6552 224.202 80.6593C224.103 80.6633 224.007 80.687 223.912 80.7304L219.038 82.9962C218.689 83.1589 218.423 83.3593 218.241 83.5977C218.059 83.836 217.936 84.0847 217.873 84.3436C217.81 84.6023 217.797 84.8579 217.835 85.1103C217.872 85.3626 217.934 85.5822 218.021 85.7693ZM221.066 84.3538L223.049 88.62L224.411 87.9871L222.427 83.7209L221.066 84.3538ZM30.9934 89.3054L29.8783 92.3937L36.2058 94.6785L35.6997 96.0799L29.3722 93.795L28.2552 96.8887L26.8538 96.3826L29.592 88.7994L30.9934 89.3054ZM229.598 100.881C229.273 100.984 228.972 101.037 228.691 101.039C228.411 101.04 228.152 101.004 227.914 100.93C227.676 100.856 227.458 100.752 227.262 100.618C227.068 100.484 226.895 100.334 226.742 100.168C226.591 100.002 226.464 99.8261 226.36 99.6407C226.256 99.4552 226.176 99.2752 226.121 99.1006L224.511 102.884L223.809 100.69L225.419 96.9123L225.093 95.8919L226.512 95.4371L227.539 98.6458C227.612 98.8194 227.701 98.9703 227.808 99.0984C227.915 99.2265 228.037 99.3278 228.173 99.4026C228.31 99.4772 228.459 99.5206 228.621 99.5328C228.783 99.5449 228.958 99.5214 229.143 99.4619L230.038 99.1751C230.118 99.1494 230.176 99.1198 230.211 99.0865C230.247 99.0531 230.27 99.0177 230.279 98.9803C230.289 98.943 230.291 98.9065 230.284 98.8707C230.276 98.835 230.267 98.8026 230.258 98.7735L228.757 94.0915L222.352 96.1445L221.897 94.7257L229.007 92.4471C229.106 92.4156 229.204 92.404 229.303 92.4125C229.402 92.4208 229.494 92.4464 229.581 92.489C229.666 92.5318 229.741 92.5909 229.806 92.6666C229.869 92.7422 229.918 92.831 229.951 92.9329L231.677 98.3188C231.779 98.6354 231.807 98.9211 231.762 99.1761C231.718 99.4311 231.631 99.6545 231.502 99.8463C231.373 100.038 231.217 100.196 231.037 100.32C230.856 100.444 230.679 100.534 230.503 100.59L229.598 100.881ZM33.097 103.049C33.0165 102.99 32.9241 102.948 32.8198 102.924L25.4275 101.243L25.097 102.696L30.7404 103.979L23.9956 108.028C23.8639 108.108 23.7675 108.217 23.7065 108.356C23.6455 108.495 23.6273 108.639 23.6517 108.79C23.6817 108.934 23.7477 109.062 23.8497 109.173C23.9517 109.284 24.0771 109.357 24.2261 109.391L31.6185 111.073L31.949 109.62L26.3055 108.336L33.056 104.289C33.1466 104.235 33.219 104.166 33.2733 104.082C33.3276 103.999 33.3649 103.912 33.3853 103.823C33.4081 103.722 33.4111 103.623 33.3942 103.525C33.3773 103.427 33.3437 103.338 33.2933 103.258C33.243 103.178 33.1775 103.109 33.097 103.049ZM228.986 114.274C229.431 114.368 229.9 114.369 230.391 114.277L231.709 114.031C232.198 113.94 232.633 113.77 233.016 113.522C233.399 113.273 233.712 112.971 233.955 112.615C234.197 112.259 234.364 111.858 234.456 111.414C234.548 110.969 234.549 110.504 234.458 110.02L233.72 106.066C233.701 105.96 233.663 105.866 233.609 105.783C233.555 105.7 233.488 105.632 233.408 105.579C233.328 105.526 233.239 105.489 233.143 105.468C233.045 105.447 232.946 105.447 232.844 105.465L226.242 106.698C226.137 106.717 226.043 106.754 225.96 106.809C225.877 106.863 225.809 106.929 225.756 107.007C225.702 107.085 225.665 107.173 225.644 107.27C225.624 107.367 225.623 107.468 225.642 107.573L226.381 111.528C226.471 112.012 226.639 112.445 226.885 112.827C227.132 113.208 227.431 113.521 227.786 113.766C228.141 114.011 228.541 114.18 228.986 114.274ZM232.193 112.282C231.973 112.418 231.721 112.513 231.436 112.566L230.118 112.812C229.828 112.866 229.558 112.869 229.306 112.821C229.055 112.773 228.829 112.68 228.631 112.542C228.432 112.404 228.264 112.226 228.129 112.009C227.993 111.791 227.899 111.54 227.846 111.254L227.243 108.027L232.391 107.066L232.993 110.293C233.046 110.579 233.05 110.847 233.001 111.099C232.953 111.351 232.861 111.577 232.725 111.777C232.59 111.978 232.412 112.146 232.193 112.282ZM30.9179 115.414L30.3797 120.762C30.359 120.967 30.3004 121.188 30.2036 121.424C30.1069 121.66 29.9655 121.873 29.7793 122.063C29.5931 122.254 29.3609 122.405 29.0828 122.517C28.8046 122.63 28.4736 122.666 28.0898 122.628L22.7418 122.09C22.6391 122.079 22.5441 122.05 22.4567 122.003C22.3693 121.956 22.2947 121.896 22.233 121.822C22.1713 121.749 22.126 121.665 22.0972 121.57C22.0684 121.475 22.0593 121.374 22.07 121.267L22.7419 114.591L24.2242 114.74L23.6264 120.681L28.2389 121.145C28.4328 121.165 28.5862 121.128 28.6991 121.036C28.8121 120.944 28.8786 120.799 28.8985 120.601L29.4354 115.265L30.9179 115.414ZM27.5096 115.745L27.0386 120.425L25.5448 120.275L26.0158 115.594L27.5096 115.745ZM227.668 120.891L227.551 119.406L235.743 118.761L235.86 120.247L227.668 120.891ZM237.876 122.341L236.573 119.443L237.399 118.982L239.214 121.604L237.876 122.341ZM228.208 130.148L236.115 134.076L236.123 132.414L230.217 129.487L236.15 126.626L236.157 124.959L228.214 128.808C228.092 128.872 227.993 128.964 227.918 129.084C227.842 129.204 227.806 129.335 227.804 129.476C227.803 129.621 227.84 129.754 227.915 129.875C227.988 129.996 228.086 130.087 228.208 130.148ZM30.0356 128.934L29.987 127.434L22.4097 127.679C22.2379 127.685 22.0869 127.741 21.9565 127.849C21.8262 127.956 21.7408 128.091 21.7002 128.253C21.6636 128.422 21.6783 128.583 21.7444 128.736C21.8105 128.888 21.9176 129.006 22.0655 129.089L28.0687 132.289L22.2851 135.87C22.2139 135.915 22.1534 135.968 22.1039 136.031C22.0543 136.094 22.0165 136.163 21.9902 136.238C21.964 136.314 21.9493 136.391 21.9462 136.472C21.943 136.552 21.9523 136.632 21.974 136.712C22.0251 136.874 22.1191 137.004 22.2561 137.101C22.393 137.198 22.5474 137.244 22.7191 137.238L30.2963 136.993L30.2482 135.504L25.357 135.662L29.916 132.86C30.0323 132.791 30.1192 132.699 30.1766 132.585C30.234 132.47 30.2607 132.348 30.2565 132.218C30.2522 132.085 30.2176 131.96 30.1527 131.846C30.0878 131.732 29.9952 131.644 29.8747 131.583L25.1444 129.093L30.0356 128.934ZM226.689 145.202L227.369 139.87C227.394 139.665 227.459 139.446 227.562 139.213C227.665 138.98 227.812 138.77 228.003 138.585C228.195 138.399 228.431 138.254 228.712 138.15C228.992 138.045 229.324 138.017 229.707 138.066L235.039 138.746C235.142 138.759 235.236 138.79 235.321 138.839C235.408 138.889 235.48 138.951 235.541 139.026C235.6 139.101 235.644 139.187 235.67 139.282C235.696 139.378 235.702 139.479 235.689 139.585L234.84 146.242L233.362 146.053L234.117 140.13L229.519 139.544C229.325 139.519 229.172 139.551 229.056 139.64C228.941 139.73 228.87 139.873 228.845 140.07L228.167 145.39L226.689 145.202ZM230.104 144.962L230.699 140.295L232.189 140.485L231.594 145.152L230.104 144.962ZM27.4681 141.881C27.9614 141.797 28.4297 141.804 28.8728 141.902C29.3161 142 29.7142 142.174 30.067 142.424C30.4199 142.673 30.7155 142.99 30.9538 143.373C31.1921 143.757 31.3529 144.192 31.4363 144.677L31.7774 146.665C31.8607 147.151 31.8541 147.615 31.7576 148.058C31.6612 148.501 31.4881 148.899 31.2386 149.252C30.9891 149.605 30.6719 149.903 30.2872 150.145C29.9024 150.387 29.4633 150.551 28.9701 150.635L27.4226 150.901C26.9331 150.985 26.4657 150.977 26.0202 150.877C25.5748 150.777 25.1766 150.602 24.8256 150.352C24.4746 150.102 24.1788 149.785 23.9383 149.4C23.6978 149.015 23.5359 148.579 23.4526 148.094L23.1114 146.106C23.0281 145.62 23.0358 145.156 23.1344 144.715C23.2332 144.274 23.4064 143.877 23.654 143.524C23.9016 143.172 24.219 142.875 24.6059 142.634C24.9929 142.393 25.4311 142.231 25.9206 142.147L27.4681 141.881ZM26.1725 143.615C25.8826 143.665 25.6279 143.756 25.4084 143.889C25.1889 144.022 25.0098 144.186 24.871 144.382C24.7322 144.579 24.6368 144.802 24.585 145.053C24.5331 145.305 24.5314 145.571 24.5798 145.854L24.921 147.842C24.97 148.128 25.0609 148.381 25.1936 148.6C25.3262 148.82 25.4907 149 25.6874 149.141C25.884 149.281 26.108 149.378 26.359 149.429C26.6102 149.481 26.8807 149.482 27.1706 149.433L28.7181 149.167C29.008 149.117 29.2628 149.026 29.4823 148.893C29.7018 148.761 29.8808 148.595 30.0192 148.397C30.1577 148.199 30.2529 147.974 30.3048 147.723C30.3566 147.472 30.358 147.203 30.3089 146.917L29.9698 144.941C29.9207 144.654 29.8298 144.402 29.6972 144.182C29.5646 143.963 29.3999 143.783 29.2033 143.642C29.0067 143.501 28.7828 143.405 28.5316 143.353C28.2805 143.301 28.0099 143.3 27.72 143.35L26.1725 143.615ZM225.827 149.71L225.505 151.164L233.526 152.947L233.849 151.493L225.827 149.71ZM33.2669 154.303L33.7206 155.735L29.0557 157.214L34.2841 158.327C34.4166 158.353 34.5296 158.413 34.6231 158.506C34.7165 158.599 34.7835 158.708 34.8239 158.835C34.8631 158.96 34.8707 159.084 34.8465 159.21C34.8222 159.336 34.7635 159.448 34.6703 159.545L31.0421 163.479L35.7069 162.001L36.1572 163.421L28.9305 165.712C28.7666 165.764 28.6056 165.762 28.4476 165.705C28.2896 165.649 28.1639 165.55 28.0705 165.407C28.028 165.337 27.9974 165.262 27.9787 165.184C27.9598 165.105 27.9528 165.026 27.9577 164.947C27.9624 164.867 27.9802 164.79 28.0109 164.717C28.0416 164.643 28.0852 164.575 28.1417 164.512L32.7372 159.497L26.0913 158.046C25.9264 158.005 25.7914 157.921 25.6863 157.792C25.5813 157.663 25.5234 157.511 25.5127 157.339C25.5079 157.172 25.5537 157.019 25.6499 156.881C25.7462 156.742 25.8762 156.647 26.0401 156.595L33.2669 154.303ZM224.155 164.133C223.875 164.042 223.634 163.925 223.434 163.782C223.233 163.638 223.067 163.481 222.933 163.309C222.8 163.137 222.699 162.955 222.63 162.759C222.56 162.564 222.515 162.371 222.493 162.179C222.471 161.987 222.469 161.798 222.489 161.614C222.508 161.429 222.543 161.262 222.593 161.109L224.365 155.641L225.782 156.101L224.01 161.568C223.921 161.84 223.933 162.078 224.044 162.281C224.155 162.483 224.345 162.628 224.613 162.716C224.744 162.758 224.871 162.777 224.993 162.772C225.115 162.768 225.228 162.742 225.332 162.693C225.437 162.644 225.527 162.573 225.605 162.48C225.684 162.387 225.745 162.275 225.787 162.144L226.844 158.884C226.917 158.656 227.039 158.421 227.206 158.183C227.374 157.944 227.586 157.741 227.841 157.572C228.097 157.404 228.396 157.292 228.739 157.237C229.082 157.182 229.466 157.223 229.892 157.36C230.317 157.498 230.651 157.69 230.895 157.935C231.138 158.181 231.316 158.447 231.425 158.734C231.535 159.02 231.588 159.31 231.584 159.601C231.58 159.893 231.54 160.154 231.466 160.382L229.902 165.207L228.485 164.747L230.049 159.924C230.136 159.654 230.123 159.419 230.008 159.214C229.893 159.011 229.701 158.865 229.432 158.778C229.16 158.689 228.92 158.695 228.713 158.794C228.506 158.894 228.359 159.079 228.272 159.347L227.215 162.607L227.212 162.618C227.159 162.77 227.085 162.924 226.992 163.082C226.898 163.241 226.784 163.392 226.649 163.536C226.515 163.678 226.361 163.806 226.191 163.92C226.02 164.033 225.829 164.121 225.62 164.184C225.411 164.246 225.185 164.277 224.94 164.273C224.697 164.27 224.434 164.223 224.155 164.133ZM129 251.196C102.109 251.196 77.2467 242.509 57.066 227.789C105.023 221.834 152.979 221.834 200.935 227.789C180.753 242.509 155.891 251.196 129 251.196Z" fill="#FFC600"/>
</svg>
