<svg width="512" height="512" viewBox="0 0 512 512" fill="none" xmlns="http://www.w3.org/2000/svg">
<g clip-path="url(#clip0_480_41)">
<path fill-rule="evenodd" clip-rule="evenodd" d="M21.3 0C21.7 0 22.9 0.6 24 1.3C25.6 2.2 28.1 2.3 36.7 1.3C42.7 0.6 52 0 57.5 0C63 0 72.2 0.5 78 1C83.8 1.6 103.8 3.7 122.5 5.6C141.2 7.6 164.4 9.4 174 9.7C183.6 10.1 213.3 9.7 240 9C277.3 8 292.3 8 305 8.9C314.1 9.5 326.9 10.8 333.5 11.8C341.1 12.9 346.2 14.1 347.7 15.3C349.2 16.4 350 18 350 20C350 21.6 349.3 24.2 348.4 25.8C346.9 28.3 346.9 29.1 348.4 35.8C349.3 39.7 350.3 47.4 350.6 52.7C350.9 58.1 350.7 78 350.2 97C349.5 123.9 349 132 347.9 133.7C347.1 135 345.4 136.5 344 137.1C342.1 137.9 340.8 137.8 338.2 136.6C335.5 135.2 334.7 134 332.8 127.8C331.3 122.7 330.6 117.7 330.6 111C330.5 105.8 331.1 89.1 331.8 74C332.5 58.4 332.7 42.8 331.5 29.5L317 28.2C307.1 27.3 293.4 27.1 273.5 27.4C257.6 27.7 229.4 28.3 211 28.6C184.1 29.1 173.7 28.9 158 27.6C147.3 26.7 125.9 24.6 110.5 22.9C95.1 21.3 73.5 19.1 62.5 18.1C51.5 17.1 42.1 16.5 41.7 16.9C41.2 17.2 44.6 20.5 49.2 24.3C53.8 28 61.5 33.9 66.5 37.3C71.5 40.8 80.7 46.8 87 50.6C93.3 54.5 103.7 60.4 110 63.7C116.3 67.1 130.1 73.7 140.5 78.5C150.9 83.2 163.1 89 167.5 91.2C171.9 93.4 178.4 97.2 182 99.5C185.6 101.8 191.2 106.2 194.5 109.3C199.4 113.9 201.1 114.9 204 114.9C206.4 114.9 208.3 115.7 212.5 120.2L211 385.5L233.7 386.2C246.3 386.7 273.4 387.3 331.8 388.5L332.4 384C332.6 381.5 333.6 365.1 334.4 347.5C335.5 323.9 335.7 312.2 334.9 303C334.4 296.1 333.3 285.1 332.5 278.5C331.2 267.2 331.2 266.4 332.9 264C333.9 262.6 335.8 261.1 337.2 260.5C339.2 259.7 340.4 259.9 342.4 261.2C343.8 262.2 346.2 264.7 347.8 266.7C349.3 268.8 351.4 272.9 352.4 276C354 280.5 354.4 285.2 354.7 301.5C355 314.9 354.5 334.3 353 360C351.8 381.2 350.5 399.4 350 400.5C349.6 401.6 348.2 403.4 347 404.5C344.9 406.4 343.4 406.5 313.1 406.4C295.7 406.4 274.5 405.8 266 405.1C257.5 404.4 242.4 403 232.5 401.9C222.6 400.9 213.5 400 212.3 400C210.1 400 210 400.3 210 410.7C210 416.7 209.5 439.7 208.9 462C208.3 484.3 207.4 503.6 206.9 505C206.3 506.5 204.1 508.4 196.5 512.3L169.5 498.9C154.7 491.5 133.5 481.2 122.5 476C111.5 470.8 96.7 463.4 89.5 459.6C82.4 455.8 72.2 450 67 446.7C61.8 443.4 53.5 437.7 48.5 434C43.6 430.3 35.1 423.1 29.8 418.1C24.4 413.1 19.7 409 19.3 409C18.8 409.1 17.7 408.3 16.8 407.3C15.7 406.2 14.1 400.7 12.6 393.5C11.3 386.9 9.40001 375.4 8.60001 368C7.70001 360.6 6.60001 344.8 6.10001 333C5.70001 321.2 5.50001 290.8 5.80001 265.5C6.20001 222.8 6.00001 216.5 3.40001 177.5C1.30001 145.4 0.600006 128.1 0.600006 104C0.600006 79.9 1.10001 69.6 2.40001 60C3.30001 53.1 4.90001 43.4 5.90001 38.5C7.00001 33.5 9.00001 25.4 10.5 20.5C12 15.5 14.2 9.5 15.4 7.1C16.5 4.7 18.2 2.1 19 1.4C19.8 0.6 20.8 0 21.3 0ZM24.6 26C24.3 29 24 32.5 24 33.7C24 35.5 26.3 37.6 33.8 42.7C39.1 46.4 50.5 53.6 59 58.6C67.5 63.5 85.5 73.5 99 80.7C112.5 87.9 126.4 95.3 130 97.1C133.6 99 137.4 100.8 138.5 101.3C140.2 102 140.3 101.9 139 100.7C138.2 99.9 122.9 90.6 105 80C87.1 69.4 68.5 58 63.5 54.6C58.6 51.3 51.6 46.2 48 43.2C44.4 40.3 37.8 33.9 33.4 29.2L25.2 20.5L24.6 26ZM21.5 57.7L21 64C48.5 82 63 91.1 71 95.8C79 100.6 98.1 110.8 113.5 118.5C128.9 126.2 147.4 134.9 154.5 137.7C161.7 140.6 172 144.5 177.5 146.5C183 148.5 187.1 149.7 186.5 149.2C186 148.7 172.9 139.8 157.5 129.5C142.1 119.2 124.1 107.3 117.5 103.2C110.9 99.1 95.8 89.8 84 82.7C72.2 75.5 57.3 66.2 51 62C44.7 57.9 36 51.9 31.8 48.7C27.5 45.6 23.8 43 23.6 43C23.3 43 22.9 44.9 22.6 47.2C22.3 49.6 21.8 54.3 21.5 57.7ZM20.6 79.3C20.3 83.8 20 89.4 20 91.7C20 96 20.1 96.1 29.8 103.3C35.1 107.3 45.6 114.3 53 119C60.4 123.6 74.4 131.3 84 136.1C93.6 140.9 107.8 147.5 115.5 150.8C123.2 154.1 139 160.7 150.5 165.5C162.1 170.3 176.6 176.4 182.8 179.1C188.9 181.8 194.2 184 194.5 184C194.8 184 195 180.2 195 175.5C195 167.7 194.8 167 193 167C191.9 167 188.9 166.3 186.3 165.4C183.6 164.5 176.1 161.2 169.5 158.1C162.9 154.9 144.7 145.3 129 136.5C113.3 127.8 94.2 117.1 86.5 112.7C78.8 108.3 67.1 101.3 60.5 97.2C53.9 93.1 42.4 85.6 34.9 80.5L21.2 71.2L20.6 79.3ZM20.5 134.2C46.9 144.1 61 149.5 69 152.6C77 155.7 87.8 160 93 162.2C98.2 164.4 108.8 169.1 116.5 172.7C124.2 176.4 135.5 182 141.5 185.3C147.6 188.6 158.8 195.4 166.5 200.5C174.2 205.6 183.3 212 186.8 214.8C190.9 218.2 193.2 219.5 193.5 218.7C193.8 218 193.9 212.8 193.8 207L193.5 196.6C153.2 180.1 136.1 172.9 129.5 170C122.9 167.1 109.6 160.8 100 156C90.4 151.1 77.3 144.1 71 140.3C64.7 136.5 54.3 129.8 48 125.5C41.7 121.1 33.6 115 30 112.1C26.4 109.1 22.7 105.9 21.7 105C20 103.5 19.9 104.1 20.2 118.8L20.5 134.2ZM168.8 119.3C174.1 122.8 182.2 128.9 186.8 132.8C191.3 136.7 195.2 140 195.5 140C195.8 140 196 136.8 196 133V126C184.8 122.6 178.6 120.4 175 118.7C171.4 117.1 166.4 114.9 163.7 113.9C161.1 112.8 159 112.2 159 112.5C159 112.7 163.4 115.8 168.8 119.3ZM20 155C56.8 177.3 77.6 189.6 90 196.7C102.4 203.8 127.8 218.3 146.5 229C165.2 239.6 183 249.8 186 251.6L191.5 254.9C192.5 251.5 192.9 246.1 192.9 240.7C193 231.6 192.9 231 191 231C189.9 231 183.9 227.4 177.8 223.1C171.6 218.8 161.1 211.9 154.5 207.8C147.9 203.6 136.4 196.9 129 192.7C121.6 188.6 105.8 180.4 94 174.5C82.2 168.5 62.6 159.2 50.5 153.7C38.4 148.2 26.6 142.9 24.2 141.9L19.9 140L20 155ZM21 177.5C55.5 194.9 74.7 205.1 86 211.4C97.3 217.6 117.2 229.3 130.3 237.4C143.3 245.4 162.2 257.6 172.3 264.5C182.3 271.4 190.9 276.6 191.3 276.2C191.7 275.8 192 273.7 192 271.5V267.5C178.4 260.8 166.6 254.5 157 249.3C147.4 244 131.6 235 122 229.2C112.4 223.4 94.8 212.3 83 204.6C71.2 196.8 53 184.6 42.5 177.5C32.1 170.3 23 164.1 22.4 163.6C21.5 163.1 21.2 165 21.1 170.2L21 177.5ZM22.4 209.5C22.6 210.1 35.9 217.9 52.1 226.9C68.3 235.9 97.3 252.2 116.5 263C135.8 273.9 159.9 287.8 170.3 293.9C180.6 300 189.5 305 190 305C190.6 305 191 301.7 191 297C191 291.3 190.7 289 189.8 289C189.1 289 182.2 284.7 174.5 279.4C166.8 274.1 149 262.1 135 252.7C121 243.3 98.7 228.9 85.5 220.7C72.3 212.5 53 200.9 42.5 194.9C32.1 188.9 22.9 184 22.2 184C21.1 184 21 186.5 21.5 196.3C21.9 203 22.3 209 22.4 209.5ZM22.5 237.4C42.7 249.2 55.3 256.3 63.5 260.7C71.8 265.2 99.7 279.6 125.5 292.8C151.4 305.9 176.4 318.8 181.3 321.4L190 326V318C176.4 310.8 167.8 306 162 302.7C156.2 299.4 141.8 290.9 130 283.7C118.2 276.5 90.1 258.9 67.5 244.7C45 230.4 25.6 218 24.4 217.2C22.4 215.7 22.3 215.8 22.4 226.6L22.5 237.4ZM22 258.5C37.1 268.1 46.5 273.5 52.5 276.7C58.6 279.9 68.7 284.9 75 287.9C81.4 290.8 95.1 297 105.5 301.5C116 306.1 130.2 312.4 137 315.5C143.9 318.7 155.2 324.3 162 328C168.9 331.7 177.8 336.8 181.8 339.3C187.5 343 189.1 343.7 189.5 342.5C189.8 341.7 190 340.3 190 339.5C190 338.6 186.8 336.6 181.8 334.3C177.2 332.3 160.7 324.2 145 316.4C129.4 308.5 109.3 298 100.5 293C91.7 287.9 77.3 279.3 68.5 273.9C59.7 268.4 46.1 259.4 38.3 253.9C30.4 248.5 23.6 244 23 244C22.5 244 22 247.1 22 251.2V258.5ZM22.6 283.5C44.3 294.7 65 304.8 82.6 313.1C100.2 321.4 122.4 332.3 132.1 337.3C141.7 342.3 154.5 349.3 160.6 352.9C166.6 356.5 175.5 362 180.3 365.2L189.1 371V356C171.6 345.9 157.1 338.3 145.6 332.6C134 326.9 111.3 315.7 95.1 307.8C78.8 299.8 59.5 289.6 52.1 285C44.6 280.5 35.5 274.6 31.8 271.9C28.1 269.3 24.4 266.8 23.7 266.4C22.6 265.9 22.3 267.5 22.4 274.7L22.6 283.5ZM24.9 320.6C25.8 321.3 33.4 325.2 41.6 329.3C49.9 333.4 70.1 342.6 86.6 349.8C103.1 356.9 121.4 365 127.1 367.7C132.9 370.4 142.8 375.5 149.1 379C155.5 382.4 164 387.5 168.1 390.3C172.3 393 178.7 397.7 182.4 400.6L189.1 406L188.6 380.8C163.1 367.6 144.6 357.9 131.1 350.7C117.7 343.5 97 332.3 85.1 325.7C73.3 319.1 54.7 308.6 43.9 302.3C33 296.1 23.6 291 23 291C22.1 291 22 294.8 22.5 305.2C23 317.3 23.4 319.7 24.9 320.6ZM23.3 335.4C23.2 342.8 23.6 346.8 24.5 348.7C25.3 350.2 28.5 353.3 31.8 355.6C35 357.9 41.2 361.5 45.6 363.7C50 365.9 68.4 375.7 86.4 385.4C104.4 395 119.4 403 119.6 403C119.9 403 130.6 408.2 143.4 414.6C156.2 421 169.8 428.2 173.6 430.7C177.5 433.2 182.8 437 185.4 439.1C188 441.2 190.2 442.6 190.2 442.2C190.3 441.8 190.3 436.5 190.2 430.5L190 419.5C184.3 414.3 177 409 170.1 404.5C163.3 399.9 152 393.1 145.1 389.2C138.3 385.4 114 373 91.1 361.7C68.3 350.4 44.9 338.3 39.1 334.8C33.4 331.3 27.5 327.6 26.1 326.6L23.5 324.7L23.3 335.4ZM25.5 371.8C25.6 371.9 28.2 372.7 31.4 373.5C34.5 374.4 39.9 376.5 43.4 378.2C46.8 379.9 51.7 382.7 54.1 384.4C56.6 386.1 64.7 392.2 72.1 398.1C79.6 403.9 91.9 413 99.6 418.2C107.3 423.5 120.4 432 128.6 437.3C136.9 442.5 153.1 452.4 164.6 459.2C176.2 466.1 187.1 472.5 188.9 473.4C190.7 474.3 192.2 475.1 192.4 475.1C192.5 475.1 192.5 472.2 192.3 468.8C192.2 465.4 191.9 461.2 191.6 459.6C191.3 456.8 189.6 455.7 171.4 445.6C160.5 439.6 133.9 424.4 112.1 411.8C90.4 399.1 68.2 386.6 62.9 383.9C57.5 381.3 50.1 377.2 46.4 375C42.7 372.7 36.5 368.4 32.6 365.5C28.8 362.5 25.3 360.1 24.8 360.1C24.3 360.1 24.3 362.6 24.7 365.8C25.1 369 25.4 371.7 25.5 371.8ZM27.9 395.9L28.6 402.2C47.2 414.3 56.9 420.2 62.1 423.3C67.4 426.3 79.7 433.1 89.6 438.3C99.5 443.5 122.9 455.5 141.6 464.9C160.3 474.3 179.8 484.3 184.9 487C194.1 492 194.1 492 194.1 489.6C194.1 487.3 191.6 485.7 171.9 474.7C159.6 467.8 140 456.3 128.1 449C116.3 441.7 96.7 429.1 84.6 421.1C72.5 413 54.6 400.7 44.9 393.7C35.1 386.8 26.8 381.1 26.5 381.1C26.2 381.1 26.1 383 26.5 385.3C26.8 387.6 27.4 392.4 27.9 395.9ZM391.1 104.1C392 104 397.6 106.1 403.6 108.6C409.7 111.1 421.2 116.5 429.1 120.5C437.1 124.5 450.2 131.7 458.1 136.6C466.1 141.4 476.9 148.3 482.1 151.9C487.4 155.5 494.6 161.4 498.3 165C503.3 169.9 505.9 173.5 508.5 179.3C510.5 183.6 512.1 187.8 512.2 188.8C512.2 189.8 508.6 195.7 504.2 202.1C499.9 208.4 491.6 219.2 485.9 226.1C480.1 232.9 471.7 242.2 467 246.6C462.4 251 456.1 256.4 453.1 258.7C450.1 261 444.5 264.8 440.6 267.1C436.8 269.5 430.3 272.7 426.1 274.3C422 276 416.2 277.9 413.1 278.7C410.1 279.4 406.3 280 404.6 280C403 280 400.1 281.2 398.1 282.6C396.1 284.1 393.3 285.1 391.4 285.1C389.2 285.1 387.3 284.2 385.5 282.3C382.9 279.7 382.8 279.3 383.5 272.1C383.9 267.9 384.6 257.4 385.1 248.6C385.6 239.8 386 232.4 385.8 232.3C385.7 232.1 380.9 232.7 375.1 233.5C369.4 234.3 355.6 235.4 344.6 236C333.6 236.6 316.5 237.8 306.6 238.7C296.7 239.6 285.7 240.1 282.1 239.8C278.6 239.4 274.1 238.5 272.1 237.7C270.2 236.9 267.4 235.3 265.9 234.2C264.4 233 263.1 231.4 263.1 230.6C263.1 229.7 263.8 228.7 264.6 228.3C266 227.6 265.9 227 264.5 222.6C263 218.2 262.9 214.5 263.5 194.1C263.9 181.1 264.5 168.2 264.9 165.4C265.3 162.5 266.3 159.5 267.1 158.7C268.2 157.6 273.5 156.6 284.1 155.4C296.2 154.1 308.7 153.7 380.9 153.6L380.4 138.6C380.1 130.3 380.1 121 380.5 117.8C380.9 113.8 381.8 111.5 383.2 110.3C384.3 109.3 386.2 107.6 387.4 106.3C388.6 105.1 390.3 104.1 391.1 104.1ZM398.3 126.6C398.6 130.4 399 130.8 407.6 136.5C412.6 139.8 429.7 151.6 445.6 162.6C461.6 173.7 477.9 185 482 187.7L489.3 192.6C492.2 188.7 493.1 187 493.1 186.3C493.1 185.6 492.1 184.5 490.9 183.7C489.6 183 481.4 176.6 472.6 169.5C463.8 162.5 453 154.4 448.6 151.5C444.2 148.6 431.2 140.4 419.8 133.2C406.9 125.2 398.7 120.6 398.5 121.4C398.2 122 398.2 124.4 398.3 126.6ZM398 145.5L398.2 150.6C428 176.4 441.8 187.8 448.1 192.6C454.5 197.3 461.6 203.1 464 205.4C466.4 207.7 469.1 210.8 470 212.4L471.6 215.1L483.1 201.1C471.2 192.9 457.9 183.1 445.9 174.1C433.8 165 418.4 153.4 411.6 148.4C404.8 143.3 398.9 139.5 398.5 139.8C398.1 140.1 397.9 142.7 398 145.5ZM397.5 164.6C398.5 166.6 398.7 168.1 398.1 169.3C397.6 170.3 397.1 171.4 397.1 171.8C397.1 172.2 399.3 173.8 401.9 175.2C404.5 176.7 415.3 184.2 425.9 192C436.5 199.7 445.4 206.1 445.6 206.1C445.9 206.1 447.1 207 448.4 208.1C449.6 209.3 452.8 212.3 455.4 214.9C458 217.5 460.7 220.8 461.4 222.4C462.1 223.9 462.9 225.1 463.1 225C463.4 225 464.9 223.4 466.4 221.5L469.1 218.1C463.3 216.3 458.9 214.1 455.6 212C452.3 209.8 446 204.6 441.5 200.3C437 196.1 425.2 184.8 415.3 175.2C400.3 160.6 397.3 158.1 396.7 159.7C396.2 160.8 396.5 162.8 397.5 164.6ZM290.3 178.7C296 183.1 309.7 193.6 320.9 201.9C336.5 213.6 341.8 217.1 344.1 217.1C345.8 217.1 347.1 216.7 347.2 216.3C347.2 215.9 345.3 214.2 342.9 212.5C340.6 210.8 329.5 201.4 318.3 191.5C307.1 181.6 297 172.8 295.8 171.9C294.5 170.9 291 170.1 286.8 169.8C283 169.5 279.9 169.6 280 169.9C280 170.3 284.7 174.2 290.3 178.7ZM339.9 181.8C346.9 187.2 359.8 196.9 368.6 203.3C383.9 214.4 384.9 215 389.6 215.1H394.6C383 204.7 372.4 194.6 363.6 185.9L347.6 170.1C332.5 170.1 328 170.5 327.7 171.1C327.4 171.6 332.9 176.5 339.9 181.8ZM318.9 183.3C327 189.5 338.2 197.6 343.9 201.3C349.5 205 355.9 209.6 358.1 211.6C361.1 214.2 362.9 215 365.2 214.8C368.2 214.6 367.7 214.1 356 204.6C349.2 199.1 337.7 189.3 330.4 182.8L317.1 171.1C307.1 171.1 304.1 171.3 304.1 171.6C304.1 171.8 310.8 177.1 318.9 183.3ZM363.6 175.7C366.4 178.3 376.3 186.4 385.6 193.9C395 201.3 408 212 414.6 217.5C421.2 223 430.3 231.3 434.9 235.8L443.1 244.1C448.9 239.1 452.3 236.1 454.3 234.1L458 230.6C452.3 226.9 448.2 223.5 445.1 220.7C442.1 217.8 436 212.3 431.6 208.4C427.2 204.6 419.6 198.3 414.6 194.5C409.7 190.6 401.1 184.4 395.6 180.7C386.3 174.3 385 173.7 377.1 172.5C372.5 171.7 366.4 171.1 363.6 171.1H358.6L363.6 175.7ZM277.7 188.1C278 193.3 278.9 198.2 279.5 199C280.1 199.7 284.9 203.6 290.1 207.5C295.4 211.4 301.5 215.8 303.9 217.3C307.2 219.5 309.3 220 313.4 220C316.3 219.9 320.9 219.6 323.6 219.2L328.6 218.5C317.9 210.8 310.7 205.2 305.7 201.1C300.7 196.9 292.4 189.4 287.1 184.3C281.9 179.3 277.3 175.1 276.8 175.1C276.3 175.1 276.2 175.8 276.5 176.8C276.8 177.8 277.3 182.8 277.7 188.1ZM280.1 221.1C290.6 220.1 293.7 219.7 293.8 219.7C293.9 219.6 290.9 217 287.1 213.8L280.3 208L280.1 221.1ZM398.5 222.8C398.9 224.7 401.7 227.7 407.3 232.2C411.9 235.9 418.9 241.8 423.1 245.5C427.2 249.2 430.8 252.2 431.1 252.1C431.3 252.1 432.5 251.5 433.6 250.7C434.9 249.7 435.2 248.9 434.6 248.3C434 247.8 427.5 242.4 420.1 236.3C412.6 230.2 404.9 223.9 402.9 222.2C400.9 220.5 399 219.4 398.6 219.6C398.2 219.9 398.2 221.3 398.5 222.8ZM402 264.8C402.1 265 404.7 264.2 407.8 263.2C411 262.2 415.3 260.6 417.3 259.7C419.4 258.8 421.1 257.9 421.1 257.6C421.1 257.3 416.9 253.7 411.8 249.6C406.7 245.4 402.3 242.1 402 242.1C401.7 242.1 401.5 247.1 401.7 253.3C401.9 259.5 402 264.7 402 264.8Z" fill="black"/>
</g>
<defs>
<clipPath id="clip0_480_41">
<rect width="512" height="512" fill="white"/>
</clipPath>
</defs>
</svg>
