<svg width="512" height="512" viewBox="0 0 512 512" fill="none" xmlns="http://www.w3.org/2000/svg">
<path d="M204 5.01506C209.8 3.81446 219 2.31371 224.5 1.51331C230 0.812963 243.5 0.112615 254.5 0.0125647C267.2 -0.0874851 278.7 0.412764 286 1.41326C292.3 2.21366 302.2 3.81446 308 5.01506C313.8 6.21565 323.7 8.7169 330 10.6178C336.3 12.5188 346.4 16.1206 352.5 18.5218C358.6 21.023 368.7 25.7254 375 29.1271C381.3 32.4287 390.8 37.9314 396 41.3331C401.2 44.7348 410.2 51.3381 416 55.9404C421.8 60.5427 431.4 69.247 437.5 75.3501C443.6 81.4531 451.6 90.2575 455.3 94.9599C459 99.6622 465.4 108.467 469.5 114.47C473.5 120.573 479.7 131.078 483.3 137.981C486.9 144.885 491.9 155.69 494.3 161.993C496.8 168.296 500.3 178.201 501.9 184.004C503.6 189.807 505.8 198.812 506.9 204.014C508 209.217 509.5 219.022 510.4 225.825C511.3 232.929 512 245.335 512 255.34C512 264.744 511.5 276.65 511 281.553C510.4 286.455 509.3 294.659 508.5 299.562C507.6 304.464 505.8 313.068 504.4 318.571C503 324.074 500.5 332.678 498.9 337.581C497.2 342.483 493.9 351.288 491.5 357.09C489 362.893 484.3 372.498 480.9 378.601C477.5 384.704 472.1 393.709 468.8 398.611C465.5 403.514 459.3 411.918 455.1 417.12C450.9 422.323 441.9 432.128 435 438.931C428.1 445.735 421.7 451.437 420.8 451.738C419.8 451.938 416.9 450.637 414.3 448.736C411.6 446.935 389.3 435.229 364.5 422.923C324.7 403.013 319.1 399.912 315.7 396.01C313.6 393.609 311 389.607 309.8 387.105C307.8 383.103 307.5 380.602 306.7 343.584L311.7 337.08C314.5 333.479 318.3 327.976 320.3 324.874C322.4 321.673 326.2 314.669 328.9 309.367C331.5 303.964 335.3 295.56 337.1 290.757C340.4 282.253 340.7 281.753 345.8 278.951C349.3 277.051 352 274.549 354 271.348C355.6 268.646 357.4 264.444 358 261.843C358.5 259.142 359 249.437 359 240.032C359 230.627 358.5 220.722 357.8 217.821C357.2 214.92 355.1 210.417 350 203.014V171.298C350 142.383 349.8 138.782 348 131.478C346.8 127.076 344.3 120.272 342.2 116.471C339.9 111.968 335.9 106.766 331 101.863C326.7 97.5611 320.7 92.7588 317 90.6577C313.4 88.6567 306.4 85.7553 301.5 84.0544C296.6 82.3536 288 80.3526 282.5 79.4521C276.1 78.3516 266.6 77.7513 256 77.7513C245.5 77.7513 235.9 78.3516 229.5 79.3521C224 80.2525 215.2 82.4536 210 84.2545C204.8 86.0554 197.8 89.0569 194.5 90.9579C191.2 92.8588 185.1 97.8613 180.9 101.963C175.4 107.366 172.2 111.568 169.5 116.971C167.4 121.073 164.9 127.876 163.9 131.978C162.2 138.582 162 143.384 162 203.014L159.6 206.315C158.3 208.016 156.4 211.118 155.4 213.019C153.7 216.12 153.5 219.022 153.5 239.532C153.5 261.543 153.6 262.743 155.8 267.546C157.1 270.347 159.7 274.049 161.6 275.85C164.1 278.151 165.6 280.952 167.1 286.255C168.3 290.257 170.8 297.361 172.7 302.063C174.6 306.765 178 313.969 180.2 318.071C182.4 322.173 186.9 329.477 196 343.083V360.792C196 372.498 195.6 380.202 194.7 383.103C194 385.605 192.1 389.507 190.5 391.808C188.8 394.109 185.7 397.31 183.5 398.911C181.3 400.512 161.9 411.417 140.5 423.123C119 434.829 99.4 445.935 96.7 447.736C94.1 449.637 91.2 450.937 90.2 450.637C89.3 450.437 83.1 444.934 76.6 438.431C70 431.928 61 422.123 56.6 416.62C52.2 411.117 45.1 401.212 40.8 394.609C36.4 388.006 29.8 376.3 26 368.596C22.3 360.892 17.6 350.287 15.7 345.084C13.8 339.882 11.1 331.478 9.7 326.575C8.3 321.673 6.2 313.269 5.1 308.066C4 302.863 2.4 292.958 1.5 286.055C0.7 279.152 0 265.945 0 256.54C0 247.236 0.7 233.929 1.5 227.026C2.3 220.122 4 209.117 5.4 202.513C6.8 195.91 9.5 185.605 11.4 179.502C13.3 173.399 17 163.594 19.5 157.491C22 151.388 26.5 141.983 29.4 136.481C32.3 130.978 37.3 122.474 40.5 117.471C43.6 112.469 49.2 104.665 52.9 99.9623C56.5 95.26 62.9 87.6562 67 83.0539C71.1 78.3516 79.7 70.0474 86 64.4447C92.3 58.9419 101.3 51.6383 106 48.3366C110.7 44.9349 118.5 39.7323 123.5 36.6308C128.4 33.6293 136.6 29.1271 141.5 26.7259C146.4 24.2246 155.7 20.1226 162 17.6213C168.3 15.1201 178 11.7184 183.5 10.1176C189 8.5168 198.2 6.21565 204 5.01506Z" fill="#556080"/>
<path d="M223.5 80.4527C227.9 79.5523 236.2 78.4517 242 78.0515C247.8 77.5513 257.2 77.4512 263 77.6513C268.8 77.9515 277.8 78.7519 283 79.5523C288.2 80.3527 296.6 82.3537 301.5 84.0545C306.4 85.7553 313.4 88.6568 317 90.6578C320.7 92.7588 326.7 97.5612 331 101.863C335.9 106.766 339.9 111.968 342.2 116.471C344.3 120.373 346.8 127.076 348 131.478C349.8 138.782 350 142.384 350 203.014L353.3 207.816C355.1 210.417 357.2 214.92 357.8 217.821C358.5 220.723 359 230.628 359 240.032C359 249.437 358.5 259.142 358 261.843C357.4 264.444 355.6 268.646 354 271.348C352 274.549 349.3 277.051 345.8 278.952C340.7 281.753 340.4 282.253 337.1 290.757C335.3 295.56 331.5 303.964 328.9 309.367C326.2 314.669 322.4 321.673 320.3 324.874C318.3 327.976 314.5 333.479 306.7 343.584L307.1 363.093C307.5 380.602 307.8 383.103 309.8 387.105C311 389.607 313.6 393.609 315.7 396.01C319.1 399.912 324.6 402.913 363.5 422.323C387.7 434.429 410.3 446.135 413.8 448.436C417.2 450.737 420 452.838 420 453.138C420 453.438 415.4 457.14 409.7 461.342C404.1 465.545 395.9 471.247 391.5 473.949C387.1 476.65 377.9 481.653 371 485.154C364.1 488.556 353.3 493.458 347 495.86C340.7 498.361 328.8 502.063 320.5 504.164C312.3 506.265 300.8 508.766 295 509.666C288.7 510.667 275.7 511.567 262.5 511.868C248.8 512.168 236.4 511.968 229.5 511.167C223.4 510.567 213.1 508.966 206.5 507.665C199.9 506.365 190.4 504.064 185.5 502.663C180.6 501.262 171.6 498.261 165.5 495.96C159.4 493.759 148 488.656 140 484.554C132 480.552 121.7 474.649 117 471.547C112.3 468.446 104.6 462.943 99.7 459.341C94.9 455.64 91 452.438 91 452.138C91 451.838 93.4 450.037 96.3 448.036C99.1 446.035 119.1 434.829 140.5 423.123C161.9 411.418 181.2 400.712 183.2 399.211C185.2 397.811 188.3 394.609 190.1 392.108C191.9 389.607 194 385.605 194.7 383.103C195.6 380.202 196 372.498 196 343.083L190.1 334.379C186.9 329.477 182.4 322.173 180.2 318.071C178 313.969 174.6 306.765 172.7 302.063C170.8 297.361 168.3 290.257 167.1 286.355C165.6 280.953 164.1 278.151 161.6 275.85C159.7 274.049 157.1 270.347 155.8 267.546C153.6 262.743 153.5 261.543 153.5 239.532C153.5 219.022 153.7 216.12 155.4 213.019C156.4 211.118 158.3 208.016 162 203.014V171.298C162 143.384 162.2 138.582 163.9 131.978C164.9 127.876 167.3 121.373 169.2 117.471C171.2 113.669 175.4 107.566 178.6 104.064C181.8 100.463 187.7 95.5602 191.5 92.9589C195.3 90.4577 202.3 86.9559 207 85.2551C211.7 83.5543 219.1 81.3532 223.5 80.4527Z" fill="#E7ECED"/>
</svg>
